<svg width="96" height="24" viewBox="0 0 96 24" fill="none" xmlns="http://www.w3.org/2000/svg">
<path d="M19.5 21.4999H23.5V17.1769C23.4999 16.9771 23.4399 16.7819 23.3278 16.6165C23.2157 16.4511 23.0566 16.3231 22.871 16.2489L19.129 14.7489C18.9438 14.6749 18.7849 14.5472 18.6728 14.3822C18.5607 14.2172 18.5005 14.0224 18.5 13.8229V12.9449C19.1065 12.5969 19.6107 12.0952 19.9617 11.4905C20.3128 10.8857 20.4985 10.1992 20.5 9.49992V7.49992C20.5002 6.7977 20.3154 6.10781 19.9644 5.49961C19.6134 4.89141 19.1085 4.38633 18.5004 4.03515C17.8923 3.68397 17.2024 3.49906 16.5002 3.49902C15.798 3.49898 15.1081 3.68381 14.5 4.03492" stroke="#7B7B7B" stroke-miterlimit="10" stroke-linecap="square"/>
<path d="M14.871 17.249L11.129 15.749C10.9438 15.675 10.7849 15.5473 10.6728 15.3823C10.5607 15.2172 10.5005 15.0225 10.5 14.823V13.945C11.1065 13.5969 11.6107 13.0953 11.9617 12.4906C12.3128 11.8858 12.4985 11.1993 12.5 10.5V8.5C12.5 7.43913 12.0786 6.42172 11.3284 5.67157C10.5783 4.92143 9.56087 4.5 8.5 4.5C7.43913 4.5 6.42172 4.92143 5.67157 5.67157C4.92143 6.42172 4.5 7.43913 4.5 8.5V10.5C4.50153 11.1993 4.68717 11.8858 5.03826 12.4906C5.38935 13.0953 5.8935 13.5969 6.5 13.945V14.823C6.49987 15.0228 6.43989 15.218 6.32777 15.3834C6.21566 15.5488 6.05656 15.6769 5.871 15.751L2.129 17.251C1.94375 17.325 1.78488 17.4527 1.67279 17.6177C1.5607 17.7828 1.50053 17.9775 1.5 18.177V21.5H15.5V18.177C15.4999 17.9772 15.4399 17.782 15.3278 17.6166C15.2157 17.4512 15.0566 17.3231 14.871 17.249Z" stroke="#7B7B7B" stroke-miterlimit="10" stroke-linecap="square"/>
<path d="M43.5 21.4999H47.5V17.1769C47.4999 16.9771 47.4399 16.7819 47.3278 16.6165C47.2157 16.4511 47.0566 16.3231 46.871 16.2489L43.129 14.7489C42.9438 14.6749 42.7849 14.5472 42.6728 14.3822C42.5607 14.2172 42.5005 14.0224 42.5 13.8229V12.9449C43.1065 12.5969 43.6107 12.0952 43.9617 11.4905C44.3128 10.8857 44.4985 10.1992 44.5 9.49992V7.49992C44.5002 6.7977 44.3154 6.10781 43.9644 5.49961C43.6134 4.89141 43.1085 4.38633 42.5004 4.03515C41.8923 3.68397 41.2024 3.49906 40.5002 3.49902C39.798 3.49898 39.1081 3.68381 38.5 4.03492" stroke="#009646" stroke-miterlimit="10" stroke-linecap="square"/>
<path d="M38.871 17.249L35.129 15.749C34.9438 15.675 34.7849 15.5473 34.6728 15.3823C34.5607 15.2172 34.5005 15.0225 34.5 14.823V13.945C35.1065 13.5969 35.6107 13.0953 35.9617 12.4906C36.3128 11.8858 36.4985 11.1993 36.5 10.5V8.5C36.5 7.43913 36.0786 6.42172 35.3284 5.67157C34.5783 4.92143 33.5609 4.5 32.5 4.5C31.4391 4.5 30.4217 4.92143 29.6716 5.67157C28.9214 6.42172 28.5 7.43913 28.5 8.5V10.5C28.5015 11.1993 28.6872 11.8858 29.0383 12.4906C29.3893 13.0953 29.8935 13.5969 30.5 13.945V14.823C30.4999 15.0228 30.4399 15.218 30.3278 15.3834C30.2157 15.5488 30.0566 15.6769 29.871 15.751L26.129 17.251C25.9438 17.325 25.7849 17.4527 25.6728 17.6177C25.5607 17.7828 25.5005 17.9775 25.5 18.177V21.5H39.5V18.177C39.4999 17.9772 39.4399 17.782 39.3278 17.6166C39.2157 17.4512 39.0566 17.3231 38.871 17.249Z" stroke="#009646" stroke-miterlimit="10" stroke-linecap="square"/>
<path d="M57 4.5H54C53.1716 4.5 52.5 5.17157 52.5 6V18C52.5 18.8284 53.1716 19.5 54 19.5H57C57.8284 19.5 58.5 18.8284 58.5 18V6C58.5 5.17157 57.8284 4.5 57 4.5Z" stroke="#7B7B7B"/>
<path d="M66 4.5H63C62.1716 4.5 61.5 5.17157 61.5 6V18C61.5 18.8284 62.1716 19.5 63 19.5H66C66.8284 19.5 67.5 18.8284 67.5 18V6C67.5 5.17157 66.8284 4.5 66 4.5Z" stroke="#7B7B7B"/>
</svg>
