<?xml version="1.0" encoding="UTF-8" standalone="no"?>
<!-- Created with Inkscape (http://www.inkscape.org/) -->

<svg
   width="24"
   height="24"
   viewBox="0 0 6.3500002 6.35"
   version="1.1"
   id="svg1"
   inkscape:version="1.4 (86a8ad7, 2024-10-11)"
   sodipodi:docname="ozon.svg"
   xmlns:inkscape="http://www.inkscape.org/namespaces/inkscape"
   xmlns:sodipodi="http://sodipodi.sourceforge.net/DTD/sodipodi-0.dtd"
   xmlns="http://www.w3.org/2000/svg"
   xmlns:svg="http://www.w3.org/2000/svg">
  <sodipodi:namedview
     id="namedview1"
     pagecolor="#ffffff"
     bordercolor="#000000"
     borderopacity="0.25"
     inkscape:showpageshadow="2"
     inkscape:pageopacity="0.0"
     inkscape:pagecheckerboard="0"
     inkscape:deskcolor="#d1d1d1"
     inkscape:document-units="mm"
     inkscape:zoom="16.291919"
     inkscape:cx="57.421105"
     inkscape:cy="11.017732"
     inkscape:window-width="3440"
     inkscape:window-height="1361"
     inkscape:window-x="-9"
     inkscape:window-y="-9"
     inkscape:window-maximized="1"
     inkscape:current-layer="layer1" />
  <defs
     id="defs1">
    <pattern
       id="EMFhbasepattern"
       patternUnits="userSpaceOnUse"
       width="6"
       height="6"
       x="0"
       y="0" />
    <pattern
       id="EMFhbasepattern-8"
       patternUnits="userSpaceOnUse"
       width="6"
       height="6"
       x="0"
       y="0" />
    <pattern
       id="EMFhbasepattern-2"
       patternUnits="userSpaceOnUse"
       width="6"
       height="6"
       x="0"
       y="0" />
  </defs>
  <g
     inkscape:label="Слой 1"
     inkscape:groupmode="layer"
     id="layer1">
    <path
       style="fill:#025afc;fill-opacity:1;fill-rule:evenodd;stroke:none;stroke-width:0.280572"
       d="M 3.7592502,1.0727522 C 3.3455483,1.1045395 3.0591388,1.4012268 3.1015696,1.8462564 3.133393,2.2383059 3.4622333,2.5138002 3.8971512,2.4820125 4.2896382,2.4396283 4.586655,2.1429426 4.5442242,1.6979134 4.5124009,1.3058632 4.1835606,1.0303683 3.7592502,1.0727522 Z"
       id="path1" />
    <path
       style="fill:#025afc;fill-opacity:1;fill-rule:evenodd;stroke:none;stroke-width:0.280572"
       d="M 5.0958272,1.3058632 V 1.10454 H 4.745771 v 1.3244927 h 0.3500562 c 0.010604,-0.2119186 0,-0.4450291 0,-0.6569478 0.010604,-0.2119187 0.084866,-0.3708581 0.2864094,-0.381454 0.275801,-0.010594 0.2970169,0.1695353 0.2970169,0.3708579 0,0.2225148 0,0.4450293 0,0.6675439 h 0.3500562 c 0.010604,-0.2013228 0,-0.4238372 0,-0.635756 0,-0.2119187 0.010604,-0.3920499 -0.09547,-0.5403932 C 5.785331,1.0303683 5.4564909,1.0197724 5.2549431,1.1469234 5.1488654,1.2104991 5.1276505,1.2952668 5.0958272,1.3058632 Z"
       id="path2" />
    <path
       style="fill:#025afc;fill-opacity:1;fill-rule:evenodd;stroke:none;stroke-width:0.280572"
       d="m 1.8392469,1.4118228 h 0.6895039 c 0,0.010594 -0.3606636,0.3814539 -0.413702,0.4344336 L 1.8498554,2.1217507 c -0.031824,0.031787 -0.021219,0.031787 -0.021219,0.084767 0,0.074171 0,0.1483431 0,0.2225146 H 3.0060953 V 2.1323465 H 2.263553 L 2.5817859,1.8038726 c 0.1060776,-0.1271511 0.254586,-0.2648983 0.371271,-0.3920499 0.031824,-0.031787 0.021219,-0.021191 0.021219,-0.084767 0,-0.063576 0.010604,-0.1589395 0,-0.2225152 H 1.8392458 Z"
       id="path3" />
    <path
       style="fill:#fefefe;fill-opacity:1;fill-rule:evenodd;stroke:none;stroke-width:0.280572"
       d="M 3.7698586,1.4012268 C 3.5683109,1.4224181 3.4410173,1.591954 3.4728407,1.8250645 3.4940601,2.0369832 3.6425652,2.1747303 3.8759352,2.1535385 4.077483,2.1217506 4.2047755,1.9522157 4.1729531,1.7191052 4.1517338,1.5071865 4.0032287,1.3588429 3.7698586,1.4012268 Z"
       id="path4" />
    <path
       style="fill:#025afc;fill-opacity:1;fill-rule:evenodd;stroke:none;stroke-width:0.280572"
       d="M 0.92697959,1.0727522 C 0.50267022,1.1045395 0.22686822,1.4012268 0.25869162,1.8462564 0.29051502,2.2383059 0.62996272,2.5138002 1.0542733,2.4820125 1.4573683,2.4396287 1.7437777,2.1429426 1.7119544,1.6979134 1.680131,1.3058632 1.3512908,1.0303683 0.92697959,1.0727522 Z"
       id="path5" />
    <path
       style="fill:#fefefe;fill-opacity:1;fill-rule:evenodd;stroke:none;stroke-width:0.280572"
       d="M 0.93758819,1.3906309 C 0.72543289,1.4224183 0.60874782,1.591954 0.62996272,1.8250645 0.65118189,2.0369832 0.81029459,2.1747303 1.0436658,2.1535385 1.2452131,2.1217507 1.3618981,1.9522157 1.3406832,1.7191052 1.3194642,1.5071865 1.1603512,1.3588429 0.93758819,1.3906309 Z"
       id="path6" />
    <path
       style="fill:#025afc;fill-opacity:1;fill-rule:evenodd;stroke:none;stroke-width:0.280572"
       d="m 1.1693085,3.0435969 c -0.1591163,0.031787 -0.32884081,0.084767 -0.46674171,0.169535 -0.021219,0.021191 -0.21215417,0.169535 -0.23337017,0.2119186 -0.031823,0.052979 -0.042428,0.042385 -0.084866,0.1165553 -0.1272935,0.2013226 -0.1803318,0.3284739 -0.1803318,0.6463521 0,0.1377472 0.053043,0.3390698 0.1060776,0.4344331 0.084866,0.169535 0.1697233,0.2648983 0.2864095,0.3708578 l 0.28640837,0.169535 0.13790091,0.05298 c 0.074251,0 0.1379014,0.021192 0.2121558,0.021192 0.1485084,0.021191 0.7849729,0.010594 0.9865207,0.010594 h 1.9518267 c 0.3076244,0 0.6788954,0.021192 0.9653049,-0.010594 C 5.3275427,5.2157648 5.359366,5.1945728 5.5184819,5.1098054 L 5.6882063,5.0144411 5.8791456,4.8237144 5.9852231,4.6435836 C 6.0913008,4.431665 6.1019092,4.3257056 6.1019092,4.092595 c 0,-0.1907269 -0.063648,-0.3708577 -0.1485083,-0.508605 -0.021218,-0.031787 -0.021218,-0.021192 -0.031823,-0.042385 -0.053042,-0.095363 0.021219,0 -0.084866,-0.1165552 C 5.6563787,3.2025365 5.3487543,3.0541934 5.0729524,3.0330015 c -0.2121552,-0.010593 -0.7319348,0 -0.9759124,0 H 2.134606 c -0.1697245,0 -0.8486209,-0.010593 -0.9653061,0.010594 z"
       id="path7" />
    <path
       style="fill:#fefefe;fill-opacity:1;fill-rule:evenodd;stroke:none;stroke-width:0.280572"
       d="M 1.6466572,3.7217367 V 3.5945855 H 1.3920711 V 4.9296733 H 1.6466572 V 4.463452 c 0.042427,0.021192 0.063648,0.063576 0.09547,0.095363 0.1379011,0.084767 0.3076255,0.074171 0.4455253,0.021192 0.3606638,-0.1271514 0.4030946,-0.7735033 0,-0.9748261 -0.1378998,-0.074172 -0.3606625,-0.05298 -0.4879561,0.074171 -0.021219,0.021191 -0.021219,0.031787 -0.053042,0.042385 z"
       id="path8" />
    <path
       style="fill:#fefefe;fill-opacity:1;fill-rule:evenodd;stroke:none;stroke-width:0.280572"
       d="M 3.4817989,4.463452 V 4.5800075 H 3.7469923 V 3.5945855 H 3.4817989 v 0.137747 C 3.4393712,3.7005451 3.4287563,3.6687567 3.3863287,3.6369694 3.2272129,3.5204142 3.0362725,3.5522022 2.8665492,3.6475632 2.654394,3.7747143 2.6013546,4.1879559 2.7392556,4.3998745 2.8559406,4.5800054 3.0574884,4.6541767 3.2484278,4.6117932 3.3757212,4.5906018 3.4287595,4.5376218 3.4817989,4.4634501 Z"
       id="path9" />
    <path
       style="fill:#fefefe;fill-opacity:1;fill-rule:evenodd;stroke:none;stroke-width:0.280572"
       d="M 4.1606943,4.9296733 H 4.4258888 L 5.03053,3.5945855 H 4.7441206 L 4.4895345,4.1879579 4.224341,3.5945855 H 3.9273241 l 0.4243105,0.9006543 z"
       id="path10" />
    <path
       style="fill:#025afc;fill-opacity:1;fill-rule:evenodd;stroke:none;stroke-width:0.280572"
       d="M 1.7527349,3.8594839 C 1.6042264,4.0078269 1.6148339,4.2303415 1.7739508,4.3363008 1.9967134,4.463452 2.2512994,4.2621294 2.1876526,4.0184227 2.1346144,3.8171001 1.8906358,3.7429284 1.7527349,3.8594839 Z"
       id="path11" />
    <path
       style="fill:#025afc;fill-opacity:1;fill-rule:evenodd;stroke:none;stroke-width:0.280572"
       d="M 2.9832342,3.9230593 C 2.8771565,4.1137863 2.9726302,4.4210684 3.280251,4.3680887 3.4817989,4.3363007 3.5242297,4.0396148 3.4393669,3.9230593 c -0.1272924,-0.148343 -0.3606626,-0.158939 -0.4561327,0 z"
       id="path12" />
  </g>
</svg>
