<svg width="360" height="163" viewBox="0 0 360 163" fill="none" xmlns="http://www.w3.org/2000/svg">
<rect width="360" height="162.215" fill="white"/>
<path d="M302 37H296V63H302V37Z" fill="#AEAEAE"/>
<path d="M312 37H306V63H312V37Z" fill="#AEAEAE"/>
<path d="M322 37H316V63H322V37Z" fill="#AEAEAE"/>
<path d="M332 37H326V63H332V37Z" fill="#AEAEAE"/>
<path d="M336.479 33.1219L314.479 21.1219C314.332 21.0418 314.167 20.9998 314 20.9998C313.833 20.9998 313.668 21.0418 313.521 21.1219L291.521 33.1219C291.363 33.208 291.232 33.3349 291.14 33.4894C291.048 33.6439 291 33.8203 291 33.9999V39.9999C291 40.2652 291.105 40.5195 291.293 40.707C291.48 40.8946 291.735 40.9999 292 40.9999H336C336.265 40.9999 336.52 40.8946 336.707 40.707C336.895 40.5195 337 40.2652 337 39.9999V33.9999C337 33.8203 336.952 33.6439 336.86 33.4894C336.768 33.3349 336.637 33.208 336.479 33.1219Z" fill="#CFCFCF"/>
<path d="M336 59H292C291.735 59 291.48 59.1054 291.293 59.2929C291.105 59.4804 291 59.7348 291 60V62C291 62.2652 291.105 62.5196 291.293 62.7071C291.48 62.8946 291.735 63 292 63H336C336.265 63 336.52 62.8946 336.707 62.7071C336.895 62.5196 337 62.2652 337 62V60C337 59.7348 336.895 59.4804 336.707 59.2929C336.52 59.1054 336.265 59 336 59Z" fill="#C6C6C6"/>
<path d="M314 35C316.209 35 318 33.2091 318 31C318 28.7909 316.209 27 314 27C311.791 27 310 28.7909 310 31C310 33.2091 311.791 35 314 35Z" fill="#949494"/>
<path d="M302 41H296V44H302V41Z" fill="#949494"/>
<path d="M312 41H306V44H312V41Z" fill="#949494"/>
<path d="M322 41H316V44H322V41Z" fill="#949494"/>
<path d="M332 41H326V44H332V41Z" fill="#949494"/>
<path d="M147 50V27C147 25.8955 146.104 25 145 25H115C113.896 25 113 25.8955 113 27V50H147Z" fill="#767676"/>
<path d="M147 50H113L107.447 61.1055C106.782 62.4355 107.749 64 109.236 64H150.764C152.25 64 153.218 62.4355 152.553 61.1055L147 50Z" fill="#C2C2C2"/>
<path d="M146 27H114V49H146V27Z" fill="#FCE238"/>
<path d="M131.121 42.4023C130.644 42.3706 130.094 42.2872 129.66 42.1618C129.579 42.1383 129.242 42.0149 129.156 41.9758C127.645 41.2778 126.593 39.7542 126.593 37.9865C126.593 35.562 128.571 33.5871 131.003 33.5871C133.414 33.5871 135.379 35.5283 135.413 37.9254H137.006C136.972 34.6525 134.293 32 131.003 32C127.694 32 125 34.685 125 37.9865C125 40.2626 126.283 42.2421 128.163 43.2535C128.502 43.4325 128.989 43.6169 129.154 43.6675C129.69 43.8265 130.348 43.9322 130.933 43.9765C131.131 43.9914 131.825 43.9992 132.028 44H143V42.4172H132.046C131.9 42.4172 131.264 42.4117 131.121 42.4023ZM132.046 39.9171C131.93 39.9171 131.324 39.9132 131.212 39.9038C131.023 39.8877 130.748 39.8595 130.571 39.8192C130.371 39.7659 130.184 39.6954 130.1 39.6492C129.508 39.33 129.105 38.7056 129.105 37.9865C129.105 36.9403 129.954 36.0919 131.003 36.0919C132.031 36.0919 132.866 36.907 132.9 37.9254H134.43C134.398 36.0649 132.878 34.5655 131.003 34.5655C129.108 34.5655 127.572 36.097 127.572 37.9865C127.572 39.319 128.338 40.4698 129.454 41.0334C129.625 41.1337 129.948 41.2386 130.04 41.2625C130.355 41.3452 130.778 41.4016 131.121 41.4266C131.248 41.4372 131.869 41.4419 132.001 41.4427L143 41.4451V39.9171H132.046Z" fill="#DB3A18"/>
<path d="M122.314 44H124V32H119.851V33.5996H122.314V44Z" fill="#DB3A18"/>
<path d="M118 35.9368V34.3987H121.471V44H119.851V35.9368H118Z" fill="#DB3A18"/>
<path d="M146 57H114L116 52H144L146 57Z" fill="#9E9E9E"/>
<path d="M135 61H125L125.542 59H134.458L135 61Z" fill="#9E9E9E"/>
<path d="M147 126V103C147 101.896 146.104 101 145 101H115C113.896 101 113 101.896 113 103V126H147Z" fill="#767676"/>
<path d="M147 126H113L107.447 137.106C106.782 138.436 107.749 140 109.236 140H150.764C152.25 140 153.218 138.436 152.553 137.106L147 126Z" fill="#C2C2C2"/>
<path d="M146 103H114V125H146V103Z" fill="#FCE238"/>
<path d="M131.121 118.402C130.644 118.371 130.094 118.287 129.66 118.162C129.579 118.138 129.242 118.015 129.156 117.976C127.645 117.278 126.593 115.754 126.593 113.986C126.593 111.562 128.571 109.587 131.003 109.587C133.414 109.587 135.379 111.528 135.413 113.925H137.006C136.972 110.652 134.293 108 131.003 108C127.694 108 125 110.685 125 113.986C125 116.263 126.283 118.242 128.163 119.253C128.502 119.432 128.989 119.617 129.154 119.667C129.69 119.826 130.348 119.932 130.933 119.976C131.131 119.991 131.825 119.999 132.028 120H143V118.417H132.046C131.9 118.417 131.264 118.412 131.121 118.402ZM132.046 115.917C131.93 115.917 131.324 115.913 131.212 115.904C131.023 115.888 130.748 115.86 130.571 115.819C130.371 115.766 130.184 115.695 130.1 115.649C129.508 115.33 129.105 114.706 129.105 113.986C129.105 112.94 129.954 112.092 131.003 112.092C132.031 112.092 132.866 112.907 132.9 113.925H134.43C134.398 112.065 132.878 110.566 131.003 110.566C129.108 110.566 127.572 112.097 127.572 113.986C127.572 115.319 128.338 116.47 129.454 117.033C129.625 117.134 129.948 117.239 130.04 117.263C130.355 117.345 130.778 117.402 131.121 117.427C131.248 117.437 131.869 117.442 132.001 117.443L143 117.445V115.917H132.046Z" fill="#DB3A18"/>
<path d="M122.314 120H124V108H119.851V109.6H122.314V120Z" fill="#DB3A18"/>
<path d="M118 111.937V110.399H121.471V120H119.851V111.937H118Z" fill="#DB3A18"/>
<path d="M146 133H114L116 128H144L146 133Z" fill="#9E9E9E"/>
<path d="M135 137H125L125.542 135H134.458L135 137Z" fill="#9E9E9E"/>
<path d="M100.354 45.3536C100.549 45.1583 100.549 44.8417 100.354 44.6464L97.1716 41.4645C96.9763 41.2692 96.6597 41.2692 96.4645 41.4645C96.2692 41.6597 96.2692 41.9763 96.4645 42.1716L99.2929 45L96.4645 47.8284C96.2692 48.0237 96.2692 48.3403 96.4645 48.5355C96.6597 48.7308 96.9763 48.7308 97.1716 48.5355L100.354 45.3536ZM100.354 119.354C100.549 119.158 100.549 118.842 100.354 118.646L97.1716 115.464C96.9763 115.269 96.6597 115.269 96.4645 115.464C96.2692 115.66 96.2692 115.976 96.4645 116.172L99.2929 119L96.4645 121.828C96.2692 122.024 96.2692 122.34 96.4645 122.536C96.6597 122.731 96.9763 122.731 97.1716 122.536L100.354 119.354ZM100 44.5C87.6027 44.5 78.2328 49.1815 71.9583 56.23C65.6919 63.2695 62.537 72.6415 62.5003 81.998C62.4637 91.3546 65.5453 100.728 71.7948 107.769C78.0525 114.82 87.4595 119.5 100 119.5V118.5C87.7291 118.5 78.6001 113.93 72.5427 107.106C66.4771 100.272 63.4645 91.1454 63.5003 82.002C63.5361 72.8585 66.6203 63.7305 72.7052 56.895C78.782 50.0685 87.8758 45.5 100 45.5V44.5Z" fill="#094771"/>
<path d="M160.646 45.3536C160.451 45.1583 160.451 44.8417 160.646 44.6464L163.828 41.4645C164.024 41.2692 164.34 41.2692 164.536 41.4645C164.731 41.6597 164.731 41.9763 164.536 42.1716L161.707 45L164.536 47.8284C164.731 48.0237 164.731 48.3403 164.536 48.5355C164.34 48.7308 164.024 48.7308 163.828 48.5355L160.646 45.3536ZM280.354 44.6464C280.549 44.8417 280.549 45.1583 280.354 45.3536L277.172 48.5355C276.976 48.7308 276.66 48.7308 276.464 48.5355C276.269 48.3403 276.269 48.0237 276.464 47.8284L279.293 45L276.464 42.1716C276.269 41.9763 276.269 41.6597 276.464 41.4645C276.66 41.2692 276.976 41.2692 277.172 41.4645L280.354 44.6464ZM161 44.5C161.138 44.5 161.276 44.5 161.414 44.5C161.551 44.5 161.689 44.5 161.826 44.5C161.963 44.5 162.1 44.5 162.236 44.5C162.373 44.5 162.509 44.5 162.645 44.5C162.781 44.5 162.917 44.5 163.052 44.5C163.188 44.5 163.323 44.5 163.458 44.5C163.593 44.5 163.728 44.5 163.862 44.5C163.997 44.5 164.131 44.5 164.265 44.5C164.399 44.5 164.532 44.5 164.666 44.5C164.799 44.5 164.932 44.5 165.065 44.5C165.198 44.5 165.331 44.5 165.463 44.5C165.596 44.5 165.728 44.5 165.86 44.5C165.991 44.5 166.123 44.5 166.254 44.5C166.386 44.5 166.517 44.5 166.648 44.5C166.779 44.5 166.909 44.5 167.04 44.5C167.17 44.5 167.3 44.5 167.43 44.5C167.56 44.5 167.689 44.5 167.819 44.5C167.948 44.5 168.077 44.5 168.206 44.5C168.335 44.5 168.463 44.5 168.592 44.5C168.72 44.5 168.848 44.5 168.976 44.5C169.104 44.5 169.231 44.5 169.359 44.5C169.486 44.5 169.613 44.5 169.74 44.5C169.867 44.5 169.993 44.5 170.12 44.5C170.246 44.5 170.372 44.5 170.498 44.5C170.624 44.5 170.749 44.5 170.875 44.5C171 44.5 171.125 44.5 171.25 44.5C171.375 44.5 171.499 44.5 171.624 44.5C171.748 44.5 171.872 44.5 171.996 44.5C172.12 44.5 172.244 44.5 172.367 44.5C172.491 44.5 172.614 44.5 172.737 44.5C172.86 44.5 172.982 44.5 173.105 44.5C173.227 44.5 173.349 44.5 173.471 44.5C173.593 44.5 173.715 44.5 173.837 44.5C173.958 44.5 174.079 44.5 174.2 44.5C174.321 44.5 174.442 44.5 174.563 44.5C174.683 44.5 174.804 44.5 174.924 44.5C175.044 44.5 175.164 44.5 175.283 44.5C175.403 44.5 175.522 44.5 175.641 44.5C175.76 44.5 175.879 44.5 175.998 44.5C176.117 44.5 176.235 44.5 176.353 44.5C176.472 44.5 176.59 44.5 176.707 44.5C176.825 44.5 176.943 44.5 177.06 44.5C177.177 44.5 177.294 44.5 177.411 44.5C177.528 44.5 177.644 44.5 177.761 44.5C177.877 44.5 177.993 44.5 178.109 44.5C178.225 44.5 178.341 44.5 178.456 44.5C178.572 44.5 178.687 44.5 178.802 44.5C178.917 44.5 179.032 44.5 179.146 44.5C179.261 44.5 179.375 44.5 179.489 44.5C179.603 44.5 179.717 44.5 179.831 44.5C179.944 44.5 180.058 44.5 180.171 44.5C180.284 44.5 180.397 44.5 180.51 44.5C180.623 44.5 180.735 44.5 180.848 44.5C180.96 44.5 181.072 44.5 181.184 44.5C181.296 44.5 181.408 44.5 181.519 44.5C181.63 44.5 181.742 44.5 181.853 44.5C181.964 44.5 182.074 44.5 182.185 44.5C182.296 44.5 182.406 44.5 182.516 44.5C182.626 44.5 182.736 44.5 182.846 44.5C182.956 44.5 183.065 44.5 183.174 44.5C183.284 44.5 183.393 44.5 183.502 44.5C183.61 44.5 183.719 44.5 183.827 44.5C183.936 44.5 184.044 44.5 184.152 44.5C184.26 44.5 184.368 44.5 184.475 44.5C184.583 44.5 184.69 44.5 184.797 44.5C184.905 44.5 185.012 44.5 185.118 44.5C185.225 44.5 185.332 44.5 185.438 44.5C185.544 44.5 185.65 44.5 185.756 44.5C185.862 44.5 185.968 44.5 186.073 44.5C186.179 44.5 186.284 44.5 186.389 44.5C186.494 44.5 186.599 44.5 186.704 44.5C186.808 44.5 186.913 44.5 187.017 44.5C187.121 44.5 187.225 44.5 187.329 44.5C187.433 44.5 187.537 44.5 187.64 44.5C187.744 44.5 187.847 44.5 187.95 44.5C188.053 44.5 188.156 44.5 188.258 44.5C188.361 44.5 188.463 44.5 188.566 44.5C188.668 44.5 188.77 44.5 188.872 44.5C188.974 44.5 189.075 44.5 189.177 44.5C189.278 44.5 189.379 44.5 189.48 44.5C189.581 44.5 189.682 44.5 189.783 44.5C189.884 44.5 189.984 44.5 190.084 44.5C190.185 44.5 190.285 44.5 190.384 44.5C190.484 44.5 190.584 44.5 190.684 44.5C190.783 44.5 190.882 44.5 190.981 44.5C191.08 44.5 191.179 44.5 191.278 44.5C191.377 44.5 191.475 44.5 191.574 44.5C191.672 44.5 191.77 44.5 191.868 44.5C191.966 44.5 192.064 44.5 192.161 44.5C192.259 44.5 192.356 44.5 192.453 44.5C192.551 44.5 192.648 44.5 192.744 44.5C192.841 44.5 192.938 44.5 193.034 44.5C193.131 44.5 193.227 44.5 193.323 44.5C193.419 44.5 193.515 44.5 193.611 44.5C193.706 44.5 193.802 44.5 193.897 44.5C193.992 44.5 194.088 44.5 194.183 44.5C194.277 44.5 194.372 44.5 194.467 44.5C194.561 44.5 194.656 44.5 194.75 44.5C194.844 44.5 194.938 44.5 195.032 44.5C195.126 44.5 195.22 44.5 195.313 44.5C195.407 44.5 195.5 44.5 195.593 44.5C195.686 44.5 195.779 44.5 195.872 44.5C195.965 44.5 196.057 44.5 196.15 44.5C196.242 44.5 196.335 44.5 196.427 44.5C196.519 44.5 196.611 44.5 196.702 44.5C196.794 44.5 196.886 44.5 196.977 44.5C197.068 44.5 197.16 44.5 197.251 44.5C197.342 44.5 197.433 44.5 197.523 44.5C197.614 44.5 197.704 44.5 197.795 44.5C197.885 44.5 197.975 44.5 198.065 44.5C198.155 44.5 198.245 44.5 198.335 44.5C198.424 44.5 198.514 44.5 198.603 44.5C198.692 44.5 198.782 44.5 198.871 44.5C198.96 44.5 199.048 44.5 199.137 44.5C199.226 44.5 199.314 44.5 199.402 44.5C199.491 44.5 199.579 44.5 199.667 44.5C199.755 44.5 199.843 44.5 199.93 44.5C200.018 44.5 200.105 44.5 200.193 44.5C200.28 44.5 200.367 44.5 200.454 44.5C200.541 44.5 200.628 44.5 200.714 44.5C200.801 44.5 200.888 44.5 200.974 44.5C201.06 44.5 201.146 44.5 201.232 44.5C201.318 44.5 201.404 44.5 201.49 44.5C201.576 44.5 201.661 44.5 201.747 44.5C201.832 44.5 201.917 44.5 202.002 44.5C202.087 44.5 202.172 44.5 202.257 44.5C202.342 44.5 202.426 44.5 202.511 44.5C202.595 44.5 202.679 44.5 202.763 44.5C202.848 44.5 202.932 44.5 203.015 44.5C203.099 44.5 203.183 44.5 203.266 44.5C203.35 44.5 203.433 44.5 203.516 44.5C203.599 44.5 203.682 44.5 203.765 44.5C203.848 44.5 203.931 44.5 204.014 44.5C204.096 44.5 204.179 44.5 204.261 44.5C204.343 44.5 204.425 44.5 204.507 44.5C204.589 44.5 204.671 44.5 204.753 44.5C204.834 44.5 204.916 44.5 204.997 44.5C205.079 44.5 205.16 44.5 205.241 44.5C205.322 44.5 205.403 44.5 205.484 44.5C205.565 44.5 205.645 44.5 205.726 44.5C205.806 44.5 205.887 44.5 205.967 44.5C206.047 44.5 206.127 44.5 206.207 44.5C206.287 44.5 206.367 44.5 206.446 44.5C206.526 44.5 206.606 44.5 206.685 44.5C206.764 44.5 206.843 44.5 206.923 44.5C207.002 44.5 207.081 44.5 207.159 44.5C207.238 44.5 207.317 44.5 207.395 44.5C207.474 44.5 207.552 44.5 207.63 44.5C207.709 44.5 207.787 44.5 207.865 44.5C207.943 44.5 208.021 44.5 208.098 44.5C208.176 44.5 208.253 44.5 208.331 44.5C208.408 44.5 208.486 44.5 208.563 44.5C208.64 44.5 208.717 44.5 208.794 44.5C208.871 44.5 208.947 44.5 209.024 44.5C209.101 44.5 209.177 44.5 209.253 44.5C209.33 44.5 209.406 44.5 209.482 44.5C209.558 44.5 209.634 44.5 209.71 44.5C209.786 44.5 209.861 44.5 209.937 44.5C210.013 44.5 210.088 44.5 210.163 44.5C210.239 44.5 210.314 44.5 210.389 44.5C210.464 44.5 210.539 44.5 210.614 44.5C210.688 44.5 210.763 44.5 210.838 44.5C210.912 44.5 210.986 44.5 211.061 44.5C211.135 44.5 211.209 44.5 211.283 44.5C211.357 44.5 211.431 44.5 211.505 44.5C211.579 44.5 211.652 44.5 211.726 44.5C211.8 44.5 211.873 44.5 211.946 44.5C212.02 44.5 212.093 44.5 212.166 44.5C212.239 44.5 212.312 44.5 212.385 44.5C212.457 44.5 212.53 44.5 212.603 44.5C212.675 44.5 212.748 44.5 212.82 44.5C212.892 44.5 212.965 44.5 213.037 44.5C213.109 44.5 213.181 44.5 213.253 44.5C213.325 44.5 213.396 44.5 213.468 44.5C213.54 44.5 213.611 44.5 213.683 44.5C213.754 44.5 213.825 44.5 213.896 44.5C213.968 44.5 214.039 44.5 214.11 44.5C214.181 44.5 214.251 44.5 214.322 44.5C214.393 44.5 214.464 44.5 214.534 44.5C214.605 44.5 214.675 44.5 214.745 44.5C214.815 44.5 214.886 44.5 214.956 44.5C215.026 44.5 215.096 44.5 215.166 44.5C215.235 44.5 215.305 44.5 215.375 44.5C215.444 44.5 215.514 44.5 215.583 44.5C215.653 44.5 215.722 44.5 215.791 44.5C215.86 44.5 215.93 44.5 215.999 44.5C216.068 44.5 216.136 44.5 216.205 44.5C216.274 44.5 216.343 44.5 216.411 44.5C216.48 44.5 216.548 44.5 216.617 44.5C216.685 44.5 216.753 44.5 216.821 44.5C216.89 44.5 216.958 44.5 217.026 44.5C217.094 44.5 217.161 44.5 217.229 44.5C217.297 44.5 217.365 44.5 217.432 44.5C217.5 44.5 217.567 44.5 217.635 44.5C217.702 44.5 217.769 44.5 217.836 44.5C217.904 44.5 217.971 44.5 218.038 44.5C218.105 44.5 218.171 44.5 218.238 44.5C218.305 44.5 218.372 44.5 218.438 44.5C218.505 44.5 218.571 44.5 218.638 44.5C218.704 44.5 218.77 44.5 218.837 44.5C218.903 44.5 218.969 44.5 219.035 44.5C219.101 44.5 219.167 44.5 219.233 44.5C219.299 44.5 219.364 44.5 219.43 44.5C219.496 44.5 219.561 44.5 219.627 44.5C219.692 44.5 219.758 44.5 219.823 44.5C219.888 44.5 219.953 44.5 220.019 44.5C220.084 44.5 220.149 44.5 220.214 44.5C220.279 44.5 220.344 44.5 220.408 44.5C220.473 44.5 220.538 44.5 220.602 44.5C220.667 44.5 220.732 44.5 220.796 44.5C220.86 44.5 220.925 44.5 220.989 44.5C221.053 44.5 221.118 44.5 221.182 44.5C221.246 44.5 221.31 44.5 221.374 44.5C221.438 44.5 221.502 44.5 221.565 44.5C221.629 44.5 221.693 44.5 221.756 44.5C221.82 44.5 221.884 44.5 221.947 44.5C222.01 44.5 222.074 44.5 222.137 44.5C222.2 44.5 222.264 44.5 222.327 44.5C222.39 44.5 222.453 44.5 222.516 44.5C222.579 44.5 222.642 44.5 222.705 44.5C222.768 44.5 222.83 44.5 222.893 44.5C222.956 44.5 223.018 44.5 223.081 44.5C223.143 44.5 223.206 44.5 223.268 44.5C223.331 44.5 223.393 44.5 223.455 44.5C223.518 44.5 223.58 44.5 223.642 44.5C223.704 44.5 223.766 44.5 223.828 44.5C223.89 44.5 223.952 44.5 224.014 44.5C224.075 44.5 224.137 44.5 224.199 44.5C224.261 44.5 224.322 44.5 224.384 44.5C224.445 44.5 224.507 44.5 224.568 44.5C224.63 44.5 224.691 44.5 224.752 44.5C224.813 44.5 224.875 44.5 224.936 44.5C224.997 44.5 225.058 44.5 225.119 44.5C225.18 44.5 225.241 44.5 225.302 44.5C225.363 44.5 225.424 44.5 225.484 44.5C225.545 44.5 225.606 44.5 225.666 44.5C225.727 44.5 225.788 44.5 225.848 44.5C225.909 44.5 225.969 44.5 226.03 44.5C226.09 44.5 226.15 44.5 226.211 44.5C226.271 44.5 226.331 44.5 226.391 44.5C226.451 44.5 226.512 44.5 226.572 44.5C226.632 44.5 226.692 44.5 226.752 44.5C226.811 44.5 226.871 44.5 226.931 44.5C226.991 44.5 227.051 44.5 227.11 44.5C227.17 44.5 227.23 44.5 227.289 44.5C227.349 44.5 227.409 44.5 227.468 44.5C227.528 44.5 227.587 44.5 227.646 44.5C227.706 44.5 227.765 44.5 227.824 44.5C227.884 44.5 227.943 44.5 228.002 44.5C228.061 44.5 228.12 44.5 228.179 44.5C228.238 44.5 228.298 44.5 228.356 44.5C228.415 44.5 228.474 44.5 228.533 44.5C228.592 44.5 228.651 44.5 228.71 44.5C228.769 44.5 228.827 44.5 228.886 44.5C228.945 44.5 229.003 44.5 229.062 44.5C229.121 44.5 229.179 44.5 229.238 44.5C229.296 44.5 229.355 44.5 229.413 44.5C229.472 44.5 229.53 44.5 229.588 44.5C229.647 44.5 229.705 44.5 229.763 44.5C229.821 44.5 229.88 44.5 229.938 44.5C229.996 44.5 230.054 44.5 230.112 44.5C230.17 44.5 230.228 44.5 230.286 44.5C230.344 44.5 230.402 44.5 230.46 44.5C230.518 44.5 230.576 44.5 230.634 44.5C230.692 44.5 230.75 44.5 230.807 44.5C230.865 44.5 230.923 44.5 230.981 44.5C231.038 44.5 231.096 44.5 231.154 44.5C231.211 44.5 231.269 44.5 231.327 44.5C231.384 44.5 231.442 44.5 231.499 44.5C231.557 44.5 231.614 44.5 231.672 44.5C231.729 44.5 231.786 44.5 231.844 44.5C231.901 44.5 231.958 44.5 232.016 44.5C232.073 44.5 232.13 44.5 232.188 44.5C232.245 44.5 232.302 44.5 232.359 44.5C232.417 44.5 232.474 44.5 232.531 44.5C232.588 44.5 232.645 44.5 232.702 44.5C232.759 44.5 232.816 44.5 232.873 44.5C232.93 44.5 232.987 44.5 233.044 44.5C233.101 44.5 233.158 44.5 233.215 44.5C233.272 44.5 233.329 44.5 233.386 44.5C233.443 44.5 233.5 44.5 233.557 44.5C233.613 44.5 233.67 44.5 233.727 44.5C233.784 44.5 233.841 44.5 233.897 44.5C233.954 44.5 234.011 44.5 234.067 44.5C234.124 44.5 234.181 44.5 234.238 44.5C234.294 44.5 234.351 44.5 234.407 44.5C234.464 44.5 234.521 44.5 234.577 44.5C234.634 44.5 234.69 44.5 234.747 44.5C234.804 44.5 234.86 44.5 234.917 44.5C234.973 44.5 235.03 44.5 235.086 44.5C235.143 44.5 235.199 44.5 235.256 44.5C235.312 44.5 235.369 44.5 235.425 44.5C235.481 44.5 235.538 44.5 235.594 44.5C235.651 44.5 235.707 44.5 235.763 44.5C235.82 44.5 235.876 44.5 235.933 44.5C235.989 44.5 236.045 44.5 236.102 44.5C236.158 44.5 236.214 44.5 236.271 44.5C236.327 44.5 236.383 44.5 236.44 44.5C236.496 44.5 236.552 44.5 236.609 44.5C236.665 44.5 236.721 44.5 236.777 44.5C236.834 44.5 236.89 44.5 236.946 44.5C237.003 44.5 237.059 44.5 237.115 44.5C237.171 44.5 237.228 44.5 237.284 44.5C237.34 44.5 237.396 44.5 237.453 44.5C237.509 44.5 237.565 44.5 237.621 44.5C237.678 44.5 237.734 44.5 237.79 44.5C237.846 44.5 237.903 44.5 237.959 44.5C238.015 44.5 238.071 44.5 238.128 44.5C238.184 44.5 238.24 44.5 238.296 44.5C238.352 44.5 238.409 44.5 238.465 44.5C238.521 44.5 238.577 44.5 238.634 44.5C238.69 44.5 238.746 44.5 238.802 44.5C238.859 44.5 238.915 44.5 238.971 44.5C239.028 44.5 239.084 44.5 239.14 44.5C239.196 44.5 239.253 44.5 239.309 44.5C239.365 44.5 239.422 44.5 239.478 44.5C239.534 44.5 239.59 44.5 239.647 44.5C239.703 44.5 239.759 44.5 239.816 44.5C239.872 44.5 239.928 44.5 239.985 44.5C240.041 44.5 240.098 44.5 240.154 44.5C240.21 44.5 240.267 44.5 240.323 44.5C240.38 44.5 240.436 44.5 240.492 44.5C240.549 44.5 240.605 44.5 240.662 44.5C240.718 44.5 240.775 44.5 240.831 44.5C240.888 44.5 240.944 44.5 241.001 44.5C241.057 44.5 241.114 44.5 241.17 44.5C241.227 44.5 241.283 44.5 241.34 44.5C241.396 44.5 241.453 44.5 241.51 44.5C241.566 44.5 241.623 44.5 241.68 44.5C241.736 44.5 241.793 44.5 241.85 44.5C241.906 44.5 241.963 44.5 242.02 44.5C242.076 44.5 242.133 44.5 242.19 44.5C242.247 44.5 242.304 44.5 242.36 44.5C242.417 44.5 242.474 44.5 242.531 44.5C242.588 44.5 242.645 44.5 242.702 44.5C242.758 44.5 242.815 44.5 242.872 44.5C242.929 44.5 242.986 44.5 243.043 44.5C243.1 44.5 243.157 44.5 243.214 44.5C243.271 44.5 243.329 44.5 243.386 44.5C243.443 44.5 243.5 44.5 243.557 44.5C243.614 44.5 243.671 44.5 243.729 44.5C243.786 44.5 243.843 44.5 243.9 44.5C243.958 44.5 244.015 44.5 244.072 44.5C244.13 44.5 244.187 44.5 244.245 44.5C244.302 44.5 244.359 44.5 244.417 44.5C244.474 44.5 244.532 44.5 244.589 44.5C244.647 44.5 244.705 44.5 244.762 44.5C244.82 44.5 244.877 44.5 244.935 44.5C244.993 44.5 245.051 44.5 245.108 44.5C245.166 44.5 245.224 44.5 245.282 44.5C245.339 44.5 245.397 44.5 245.455 44.5C245.513 44.5 245.571 44.5 245.629 44.5C245.687 44.5 245.745 44.5 245.803 44.5C245.861 44.5 245.919 44.5 245.977 44.5C246.036 44.5 246.094 44.5 246.152 44.5C246.21 44.5 246.268 44.5 246.327 44.5C246.385 44.5 246.443 44.5 246.502 44.5C246.56 44.5 246.619 44.5 246.677 44.5C246.736 44.5 246.794 44.5 246.853 44.5C246.911 44.5 246.97 44.5 247.029 44.5C247.087 44.5 247.146 44.5 247.205 44.5C247.263 44.5 247.322 44.5 247.381 44.5C247.44 44.5 247.499 44.5 247.558 44.5C247.617 44.5 247.676 44.5 247.735 44.5C247.794 44.5 247.853 44.5 247.912 44.5C247.971 44.5 248.03 44.5 248.089 44.5C248.149 44.5 248.208 44.5 248.267 44.5C248.327 44.5 248.386 44.5 248.446 44.5C248.505 44.5 248.564 44.5 248.624 44.5C248.684 44.5 248.743 44.5 248.803 44.5C248.863 44.5 248.922 44.5 248.982 44.5C249.042 44.5 249.102 44.5 249.161 44.5C249.221 44.5 249.281 44.5 249.341 44.5C249.401 44.5 249.461 44.5 249.521 44.5C249.582 44.5 249.642 44.5 249.702 44.5C249.762 44.5 249.822 44.5 249.883 44.5C249.943 44.5 250.004 44.5 250.064 44.5C250.125 44.5 250.185 44.5 250.246 44.5C250.306 44.5 250.367 44.5 250.428 44.5C250.488 44.5 250.549 44.5 250.61 44.5C250.671 44.5 250.732 44.5 250.793 44.5C250.854 44.5 250.915 44.5 250.976 44.5C251.037 44.5 251.098 44.5 251.159 44.5C251.22 44.5 251.282 44.5 251.343 44.5C251.404 44.5 251.466 44.5 251.527 44.5C251.589 44.5 251.65 44.5 251.712 44.5C251.774 44.5 251.835 44.5 251.897 44.5C251.959 44.5 252.021 44.5 252.083 44.5C252.144 44.5 252.206 44.5 252.269 44.5C252.331 44.5 252.393 44.5 252.455 44.5C252.517 44.5 252.579 44.5 252.642 44.5C252.704 44.5 252.766 44.5 252.829 44.5C252.891 44.5 252.954 44.5 253.017 44.5C253.079 44.5 253.142 44.5 253.205 44.5C253.267 44.5 253.33 44.5 253.393 44.5C253.456 44.5 253.519 44.5 253.582 44.5C253.645 44.5 253.708 44.5 253.772 44.5C253.835 44.5 253.898 44.5 253.962 44.5C254.025 44.5 254.088 44.5 254.152 44.5C254.216 44.5 254.279 44.5 254.343 44.5C254.407 44.5 254.47 44.5 254.534 44.5C254.598 44.5 254.662 44.5 254.726 44.5C254.79 44.5 254.854 44.5 254.919 44.5C254.983 44.5 255.047 44.5 255.111 44.5C255.176 44.5 255.24 44.5 255.305 44.5C255.369 44.5 255.434 44.5 255.499 44.5C255.563 44.5 255.628 44.5 255.693 44.5C255.758 44.5 255.823 44.5 255.888 44.5C255.953 44.5 256.018 44.5 256.083 44.5C256.149 44.5 256.214 44.5 256.279 44.5C256.345 44.5 256.41 44.5 256.476 44.5C256.541 44.5 256.607 44.5 256.673 44.5C256.739 44.5 256.804 44.5 256.87 44.5C256.936 44.5 257.002 44.5 257.069 44.5C257.135 44.5 257.201 44.5 257.267 44.5C257.334 44.5 257.4 44.5 257.466 44.5C257.533 44.5 257.6 44.5 257.666 44.5C257.733 44.5 257.8 44.5 257.867 44.5C257.934 44.5 258.001 44.5 258.068 44.5C258.135 44.5 258.202 44.5 258.269 44.5C258.336 44.5 258.404 44.5 258.471 44.5C258.539 44.5 258.606 44.5 258.674 44.5C258.742 44.5 258.81 44.5 258.877 44.5C258.945 44.5 259.013 44.5 259.081 44.5C259.149 44.5 259.218 44.5 259.286 44.5C259.354 44.5 259.423 44.5 259.491 44.5C259.56 44.5 259.628 44.5 259.697 44.5C259.765 44.5 259.834 44.5 259.903 44.5C259.972 44.5 260.041 44.5 260.11 44.5C260.179 44.5 260.249 44.5 260.318 44.5C260.387 44.5 260.457 44.5 260.526 44.5C260.596 44.5 260.665 44.5 260.735 44.5C260.805 44.5 260.875 44.5 260.945 44.5C261.015 44.5 261.085 44.5 261.155 44.5C261.225 44.5 261.295 44.5 261.366 44.5C261.436 44.5 261.507 44.5 261.577 44.5C261.648 44.5 261.719 44.5 261.79 44.5C261.861 44.5 261.931 44.5 262.003 44.5C262.074 44.5 262.145 44.5 262.216 44.5C262.287 44.5 262.359 44.5 262.43 44.5C262.502 44.5 262.574 44.5 262.645 44.5C262.717 44.5 262.789 44.5 262.861 44.5C262.933 44.5 263.005 44.5 263.077 44.5C263.15 44.5 263.222 44.5 263.295 44.5C263.367 44.5 263.44 44.5 263.512 44.5C263.585 44.5 263.658 44.5 263.731 44.5C263.804 44.5 263.877 44.5 263.95 44.5C264.023 44.5 264.097 44.5 264.17 44.5C264.243 44.5 264.317 44.5 264.391 44.5C264.464 44.5 264.538 44.5 264.612 44.5C264.686 44.5 264.76 44.5 264.834 44.5C264.909 44.5 264.983 44.5 265.057 44.5C265.132 44.5 265.206 44.5 265.281 44.5C265.356 44.5 265.43 44.5 265.505 44.5C265.58 44.5 265.655 44.5 265.731 44.5C265.806 44.5 265.881 44.5 265.957 44.5C266.032 44.5 266.108 44.5 266.183 44.5C266.259 44.5 266.335 44.5 266.411 44.5C266.487 44.5 266.563 44.5 266.639 44.5C266.715 44.5 266.792 44.5 266.868 44.5C266.945 44.5 267.021 44.5 267.098 44.5C267.175 44.5 267.252 44.5 267.329 44.5C267.406 44.5 267.483 44.5 267.56 44.5C267.638 44.5 267.715 44.5 267.793 44.5C267.87 44.5 267.948 44.5 268.026 44.5C268.104 44.5 268.182 44.5 268.26 44.5C268.338 44.5 268.416 44.5 268.495 44.5C268.573 44.5 268.651 44.5 268.73 44.5C268.809 44.5 268.888 44.5 268.967 44.5C269.046 44.5 269.125 44.5 269.204 44.5C269.283 44.5 269.363 44.5 269.442 44.5C269.522 44.5 269.601 44.5 269.681 44.5C269.761 44.5 269.841 44.5 269.921 44.5C270.001 44.5 270.081 44.5 270.162 44.5C270.242 44.5 270.323 44.5 270.403 44.5C270.484 44.5 270.565 44.5 270.646 44.5C270.727 44.5 270.808 44.5 270.889 44.5C270.97 44.5 271.052 44.5 271.133 44.5C271.215 44.5 271.296 44.5 271.378 44.5C271.46 44.5 271.542 44.5 271.624 44.5C271.706 44.5 271.789 44.5 271.871 44.5C271.954 44.5 272.036 44.5 272.119 44.5C272.202 44.5 272.285 44.5 272.368 44.5C272.451 44.5 272.534 44.5 272.617 44.5C272.701 44.5 272.784 44.5 272.868 44.5C272.952 44.5 273.035 44.5 273.119 44.5C273.203 44.5 273.288 44.5 273.372 44.5C273.456 44.5 273.541 44.5 273.625 44.5C273.71 44.5 273.795 44.5 273.88 44.5C273.964 44.5 274.05 44.5 274.135 44.5C274.22 44.5 274.305 44.5 274.391 44.5C274.476 44.5 274.562 44.5 274.648 44.5C274.734 44.5 274.82 44.5 274.906 44.5C274.992 44.5 275.079 44.5 275.165 44.5C275.252 44.5 275.338 44.5 275.425 44.5C275.512 44.5 275.599 44.5 275.686 44.5C275.774 44.5 275.861 44.5 275.948 44.5C276.036 44.5 276.124 44.5 276.211 44.5C276.299 44.5 276.387 44.5 276.475 44.5C276.563 44.5 276.652 44.5 276.74 44.5C276.829 44.5 276.917 44.5 277.006 44.5C277.095 44.5 277.184 44.5 277.273 44.5C277.362 44.5 277.452 44.5 277.541 44.5C277.631 44.5 277.721 44.5 277.81 44.5C277.9 44.5 277.99 44.5 278.08 44.5C278.171 44.5 278.261 44.5 278.352 44.5C278.442 44.5 278.533 44.5 278.624 44.5C278.715 44.5 278.806 44.5 278.897 44.5C278.988 44.5 279.079 44.5 279.171 44.5C279.263 44.5 279.354 44.5 279.446 44.5C279.538 44.5 279.63 44.5 279.723 44.5C279.815 44.5 279.907 44.5 280 44.5V45.5C279.907 45.5 279.815 45.5 279.723 45.5C279.63 45.5 279.538 45.5 279.446 45.5C279.354 45.5 279.263 45.5 279.171 45.5C279.079 45.5 278.988 45.5 278.897 45.5C278.806 45.5 278.715 45.5 278.624 45.5C278.533 45.5 278.442 45.5 278.352 45.5C278.261 45.5 278.171 45.5 278.08 45.5C277.99 45.5 277.9 45.5 277.81 45.5C277.721 45.5 277.631 45.5 277.541 45.5C277.452 45.5 277.362 45.5 277.273 45.5C277.184 45.5 277.095 45.5 277.006 45.5C276.917 45.5 276.829 45.5 276.74 45.5C276.652 45.5 276.563 45.5 276.475 45.5C276.387 45.5 276.299 45.5 276.211 45.5C276.124 45.5 276.036 45.5 275.948 45.5C275.861 45.5 275.774 45.5 275.686 45.5C275.599 45.5 275.512 45.5 275.425 45.5C275.338 45.5 275.252 45.5 275.165 45.5C275.079 45.5 274.992 45.5 274.906 45.5C274.82 45.5 274.734 45.5 274.648 45.5C274.562 45.5 274.476 45.5 274.391 45.5C274.305 45.5 274.22 45.5 274.135 45.5C274.05 45.5 273.964 45.5 273.88 45.5C273.795 45.5 273.71 45.5 273.625 45.5C273.541 45.5 273.456 45.5 273.372 45.5C273.288 45.5 273.203 45.5 273.119 45.5C273.035 45.5 272.952 45.5 272.868 45.5C272.784 45.5 272.701 45.5 272.617 45.5C272.534 45.5 272.451 45.5 272.368 45.5C272.285 45.5 272.202 45.5 272.119 45.5C272.036 45.5 271.954 45.5 271.871 45.5C271.789 45.5 271.706 45.5 271.624 45.5C271.542 45.5 271.46 45.5 271.378 45.5C271.296 45.5 271.215 45.5 271.133 45.5C271.052 45.5 270.97 45.5 270.889 45.5C270.808 45.5 270.727 45.5 270.646 45.5C270.565 45.5 270.484 45.5 270.403 45.5C270.323 45.5 270.242 45.5 270.162 45.5C270.081 45.5 270.001 45.5 269.921 45.5C269.841 45.5 269.761 45.5 269.681 45.5C269.601 45.5 269.522 45.5 269.442 45.5C269.363 45.5 269.283 45.5 269.204 45.5C269.125 45.5 269.046 45.5 268.967 45.5C268.888 45.5 268.809 45.5 268.73 45.5C268.651 45.5 268.573 45.5 268.495 45.5C268.416 45.5 268.338 45.5 268.26 45.5C268.182 45.5 268.104 45.5 268.026 45.5C267.948 45.5 267.87 45.5 267.793 45.5C267.715 45.5 267.638 45.5 267.56 45.5C267.483 45.5 267.406 45.5 267.329 45.5C267.252 45.5 267.175 45.5 267.098 45.5C267.021 45.5 266.945 45.5 266.868 45.5C266.792 45.5 266.715 45.5 266.639 45.5C266.563 45.5 266.487 45.5 266.411 45.5C266.335 45.5 266.259 45.5 266.183 45.5C266.108 45.5 266.032 45.5 265.957 45.5C265.881 45.5 265.806 45.5 265.731 45.5C265.655 45.5 265.58 45.5 265.505 45.5C265.43 45.5 265.356 45.5 265.281 45.5C265.206 45.5 265.132 45.5 265.057 45.5C264.983 45.5 264.909 45.5 264.834 45.5C264.76 45.5 264.686 45.5 264.612 45.5C264.538 45.5 264.464 45.5 264.391 45.5C264.317 45.5 264.243 45.5 264.17 45.5C264.097 45.5 264.023 45.5 263.95 45.5C263.877 45.5 263.804 45.5 263.731 45.5C263.658 45.5 263.585 45.5 263.512 45.5C263.44 45.5 263.367 45.5 263.295 45.5C263.222 45.5 263.15 45.5 263.077 45.5C263.005 45.5 262.933 45.5 262.861 45.5C262.789 45.5 262.717 45.5 262.645 45.5C262.574 45.5 262.502 45.5 262.43 45.5C262.359 45.5 262.287 45.5 262.216 45.5C262.145 45.5 262.074 45.5 262.003 45.5C261.931 45.5 261.861 45.5 261.79 45.5C261.719 45.5 261.648 45.5 261.577 45.5C261.507 45.5 261.436 45.5 261.366 45.5C261.295 45.5 261.225 45.5 261.155 45.5C261.085 45.5 261.015 45.5 260.945 45.5C260.875 45.5 260.805 45.5 260.735 45.5C260.665 45.5 260.596 45.5 260.526 45.5C260.457 45.5 260.387 45.5 260.318 45.5C260.249 45.5 260.179 45.5 260.11 45.5C260.041 45.5 259.972 45.5 259.903 45.5C259.834 45.5 259.765 45.5 259.697 45.5C259.628 45.5 259.56 45.5 259.491 45.5C259.423 45.5 259.354 45.5 259.286 45.5C259.218 45.5 259.149 45.5 259.081 45.5C259.013 45.5 258.945 45.5 258.877 45.5C258.81 45.5 258.742 45.5 258.674 45.5C258.606 45.5 258.539 45.5 258.471 45.5C258.404 45.5 258.336 45.5 258.269 45.5C258.202 45.5 258.135 45.5 258.068 45.5C258.001 45.5 257.934 45.5 257.867 45.5C257.8 45.5 257.733 45.5 257.666 45.5C257.6 45.5 257.533 45.5 257.466 45.5C257.4 45.5 257.334 45.5 257.267 45.5C257.201 45.5 257.135 45.5 257.069 45.5C257.002 45.5 256.936 45.5 256.87 45.5C256.804 45.5 256.739 45.5 256.673 45.5C256.607 45.5 256.541 45.5 256.476 45.5C256.41 45.5 256.345 45.5 256.279 45.5C256.214 45.5 256.149 45.5 256.083 45.5C256.018 45.5 255.953 45.5 255.888 45.5C255.823 45.5 255.758 45.5 255.693 45.5C255.628 45.5 255.563 45.5 255.499 45.5C255.434 45.5 255.369 45.5 255.305 45.5C255.24 45.5 255.176 45.5 255.111 45.5C255.047 45.5 254.983 45.5 254.919 45.5C254.854 45.5 254.79 45.5 254.726 45.5C254.662 45.5 254.598 45.5 254.534 45.5C254.47 45.5 254.407 45.5 254.343 45.5C254.279 45.5 254.216 45.5 254.152 45.5C254.088 45.5 254.025 45.5 253.962 45.5C253.898 45.5 253.835 45.5 253.772 45.5C253.708 45.5 253.645 45.5 253.582 45.5C253.519 45.5 253.456 45.5 253.393 45.5C253.33 45.5 253.267 45.5 253.205 45.5C253.142 45.5 253.079 45.5 253.017 45.5C252.954 45.5 252.891 45.5 252.829 45.5C252.766 45.5 252.704 45.5 252.642 45.5C252.579 45.5 252.517 45.5 252.455 45.5C252.393 45.5 252.331 45.5 252.269 45.5C252.206 45.5 252.144 45.5 252.083 45.5C252.021 45.5 251.959 45.5 251.897 45.5C251.835 45.5 251.774 45.5 251.712 45.5C251.65 45.5 251.589 45.5 251.527 45.5C251.466 45.5 251.404 45.5 251.343 45.5C251.282 45.5 251.22 45.5 251.159 45.5C251.098 45.5 251.037 45.5 250.976 45.5C250.915 45.5 250.854 45.5 250.793 45.5C250.732 45.5 250.671 45.5 250.61 45.5C250.549 45.5 250.488 45.5 250.428 45.5C250.367 45.5 250.306 45.5 250.246 45.5C250.185 45.5 250.125 45.5 250.064 45.5C250.004 45.5 249.943 45.5 249.883 45.5C249.822 45.5 249.762 45.5 249.702 45.5C249.642 45.5 249.582 45.5 249.521 45.5C249.461 45.5 249.401 45.5 249.341 45.5C249.281 45.5 249.221 45.5 249.161 45.5C249.102 45.5 249.042 45.5 248.982 45.5C248.922 45.5 248.863 45.5 248.803 45.5C248.743 45.5 248.684 45.5 248.624 45.5C248.564 45.5 248.505 45.5 248.446 45.5C248.386 45.5 248.327 45.5 248.267 45.5C248.208 45.5 248.149 45.5 248.089 45.5C248.03 45.5 247.971 45.5 247.912 45.5C247.853 45.5 247.794 45.5 247.735 45.5C247.676 45.5 247.617 45.5 247.558 45.5C247.499 45.5 247.44 45.5 247.381 45.5C247.322 45.5 247.263 45.5 247.205 45.5C247.146 45.5 247.087 45.5 247.029 45.5C246.97 45.5 246.911 45.5 246.853 45.5C246.794 45.5 246.736 45.5 246.677 45.5C246.619 45.5 246.56 45.5 246.502 45.5C246.443 45.5 246.385 45.5 246.327 45.5C246.268 45.5 246.21 45.5 246.152 45.5C246.094 45.5 246.036 45.5 245.977 45.5C245.919 45.5 245.861 45.5 245.803 45.5C245.745 45.5 245.687 45.5 245.629 45.5C245.571 45.5 245.513 45.5 245.455 45.5C245.397 45.5 245.339 45.5 245.282 45.5C245.224 45.5 245.166 45.5 245.108 45.5C245.051 45.5 244.993 45.5 244.935 45.5C244.877 45.5 244.82 45.5 244.762 45.5C244.705 45.5 244.647 45.5 244.589 45.5C244.532 45.5 244.474 45.5 244.417 45.5C244.359 45.5 244.302 45.5 244.245 45.5C244.187 45.5 244.13 45.5 244.072 45.5C244.015 45.5 243.958 45.5 243.9 45.5C243.843 45.5 243.786 45.5 243.729 45.5C243.671 45.5 243.614 45.5 243.557 45.5C243.5 45.5 243.443 45.5 243.386 45.5C243.329 45.5 243.271 45.5 243.214 45.5C243.157 45.5 243.1 45.5 243.043 45.5C242.986 45.5 242.929 45.5 242.872 45.5C242.815 45.5 242.758 45.5 242.702 45.5C242.645 45.5 242.588 45.5 242.531 45.5C242.474 45.5 242.417 45.5 242.36 45.5C242.304 45.5 242.247 45.5 242.19 45.5C242.133 45.5 242.076 45.5 242.02 45.5C241.963 45.5 241.906 45.5 241.85 45.5C241.793 45.5 241.736 45.5 241.68 45.5C241.623 45.5 241.566 45.5 241.51 45.5C241.453 45.5 241.396 45.5 241.34 45.5C241.283 45.5 241.227 45.5 241.17 45.5C241.114 45.5 241.057 45.5 241.001 45.5C240.944 45.5 240.888 45.5 240.831 45.5C240.775 45.5 240.718 45.5 240.662 45.5C240.605 45.5 240.549 45.5 240.492 45.5C240.436 45.5 240.38 45.5 240.323 45.5C240.267 45.5 240.21 45.5 240.154 45.5C240.098 45.5 240.041 45.5 239.985 45.5C239.928 45.5 239.872 45.5 239.816 45.5C239.759 45.5 239.703 45.5 239.647 45.5C239.59 45.5 239.534 45.5 239.478 45.5C239.422 45.5 239.365 45.5 239.309 45.5C239.253 45.5 239.196 45.5 239.14 45.5C239.084 45.5 239.028 45.5 238.971 45.5C238.915 45.5 238.859 45.5 238.802 45.5C238.746 45.5 238.69 45.5 238.634 45.5C238.577 45.5 238.521 45.5 238.465 45.5C238.409 45.5 238.352 45.5 238.296 45.5C238.24 45.5 238.184 45.5 238.128 45.5C238.071 45.5 238.015 45.5 237.959 45.5C237.903 45.5 237.846 45.5 237.79 45.5C237.734 45.5 237.678 45.5 237.621 45.5C237.565 45.5 237.509 45.5 237.453 45.5C237.396 45.5 237.34 45.5 237.284 45.5C237.228 45.5 237.171 45.5 237.115 45.5C237.059 45.5 237.003 45.5 236.946 45.5C236.89 45.5 236.834 45.5 236.777 45.5C236.721 45.5 236.665 45.5 236.609 45.5C236.552 45.5 236.496 45.5 236.44 45.5C236.383 45.5 236.327 45.5 236.271 45.5C236.214 45.5 236.158 45.5 236.102 45.5C236.045 45.5 235.989 45.5 235.933 45.5C235.876 45.5 235.82 45.5 235.763 45.5C235.707 45.5 235.651 45.5 235.594 45.5C235.538 45.5 235.481 45.5 235.425 45.5C235.369 45.5 235.312 45.5 235.256 45.5C235.199 45.5 235.143 45.5 235.086 45.5C235.03 45.5 234.973 45.5 234.917 45.5C234.86 45.5 234.804 45.5 234.747 45.5C234.69 45.5 234.634 45.5 234.577 45.5C234.521 45.5 234.464 45.5 234.407 45.5C234.351 45.5 234.294 45.5 234.238 45.5C234.181 45.5 234.124 45.5 234.067 45.5C234.011 45.5 233.954 45.5 233.897 45.5C233.841 45.5 233.784 45.5 233.727 45.5C233.67 45.5 233.613 45.5 233.557 45.5C233.5 45.5 233.443 45.5 233.386 45.5C233.329 45.5 233.272 45.5 233.215 45.5C233.158 45.5 233.101 45.5 233.044 45.5C232.987 45.5 232.93 45.5 232.873 45.5C232.816 45.5 232.759 45.5 232.702 45.5C232.645 45.5 232.588 45.5 232.531 45.5C232.474 45.5 232.417 45.5 232.359 45.5C232.302 45.5 232.245 45.5 232.188 45.5C232.13 45.5 232.073 45.5 232.016 45.5C231.958 45.5 231.901 45.5 231.844 45.5C231.786 45.5 231.729 45.5 231.672 45.5C231.614 45.5 231.557 45.5 231.499 45.5C231.442 45.5 231.384 45.5 231.327 45.5C231.269 45.5 231.211 45.5 231.154 45.5C231.096 45.5 231.038 45.5 230.981 45.5C230.923 45.5 230.865 45.5 230.807 45.5C230.75 45.5 230.692 45.5 230.634 45.5C230.576 45.5 230.518 45.5 230.46 45.5C230.402 45.5 230.344 45.5 230.286 45.5C230.228 45.5 230.17 45.5 230.112 45.5C230.054 45.5 229.996 45.5 229.938 45.5C229.88 45.5 229.821 45.5 229.763 45.5C229.705 45.5 229.647 45.5 229.588 45.5C229.53 45.5 229.472 45.5 229.413 45.5C229.355 45.5 229.296 45.5 229.238 45.5C229.179 45.5 229.121 45.5 229.062 45.5C229.003 45.5 228.945 45.5 228.886 45.5C228.827 45.5 228.769 45.5 228.71 45.5C228.651 45.5 228.592 45.5 228.533 45.5C228.474 45.5 228.415 45.5 228.356 45.5C228.298 45.5 228.238 45.5 228.179 45.5C228.12 45.5 228.061 45.5 228.002 45.5C227.943 45.5 227.884 45.5 227.824 45.5C227.765 45.5 227.706 45.5 227.646 45.5C227.587 45.5 227.528 45.5 227.468 45.5C227.409 45.5 227.349 45.5 227.289 45.5C227.23 45.5 227.17 45.5 227.11 45.5C227.051 45.5 226.991 45.5 226.931 45.5C226.871 45.5 226.811 45.5 226.752 45.5C226.692 45.5 226.632 45.5 226.572 45.5C226.512 45.5 226.451 45.5 226.391 45.5C226.331 45.5 226.271 45.5 226.211 45.5C226.15 45.5 226.09 45.5 226.03 45.5C225.969 45.5 225.909 45.5 225.848 45.5C225.788 45.5 225.727 45.5 225.666 45.5C225.606 45.5 225.545 45.5 225.484 45.5C225.424 45.5 225.363 45.5 225.302 45.5C225.241 45.5 225.18 45.5 225.119 45.5C225.058 45.5 224.997 45.5 224.936 45.5C224.875 45.5 224.813 45.5 224.752 45.5C224.691 45.5 224.63 45.5 224.568 45.5C224.507 45.5 224.445 45.5 224.384 45.5C224.322 45.5 224.261 45.5 224.199 45.5C224.137 45.5 224.075 45.5 224.014 45.5C223.952 45.5 223.89 45.5 223.828 45.5C223.766 45.5 223.704 45.5 223.642 45.5C223.58 45.5 223.518 45.5 223.455 45.5C223.393 45.5 223.331 45.5 223.268 45.5C223.206 45.5 223.143 45.5 223.081 45.5C223.018 45.5 222.956 45.5 222.893 45.5C222.83 45.5 222.768 45.5 222.705 45.5C222.642 45.5 222.579 45.5 222.516 45.5C222.453 45.5 222.39 45.5 222.327 45.5C222.264 45.5 222.2 45.5 222.137 45.5C222.074 45.5 222.01 45.5 221.947 45.5C221.884 45.5 221.82 45.5 221.756 45.5C221.693 45.5 221.629 45.5 221.565 45.5C221.502 45.5 221.438 45.5 221.374 45.5C221.31 45.5 221.246 45.5 221.182 45.5C221.118 45.5 221.053 45.5 220.989 45.5C220.925 45.5 220.86 45.5 220.796 45.5C220.732 45.5 220.667 45.5 220.602 45.5C220.538 45.5 220.473 45.5 220.408 45.5C220.344 45.5 220.279 45.5 220.214 45.5C220.149 45.5 220.084 45.5 220.019 45.5C219.953 45.5 219.888 45.5 219.823 45.5C219.758 45.5 219.692 45.5 219.627 45.5C219.561 45.5 219.496 45.5 219.43 45.5C219.364 45.5 219.299 45.5 219.233 45.5C219.167 45.5 219.101 45.5 219.035 45.5C218.969 45.5 218.903 45.5 218.837 45.5C218.77 45.5 218.704 45.5 218.638 45.5C218.571 45.5 218.505 45.5 218.438 45.5C218.372 45.5 218.305 45.5 218.238 45.5C218.171 45.5 218.105 45.5 218.038 45.5C217.971 45.5 217.904 45.5 217.836 45.5C217.769 45.5 217.702 45.5 217.635 45.5C217.567 45.5 217.5 45.5 217.432 45.5C217.365 45.5 217.297 45.5 217.229 45.5C217.161 45.5 217.094 45.5 217.026 45.5C216.958 45.5 216.89 45.5 216.821 45.5C216.753 45.5 216.685 45.5 216.617 45.5C216.548 45.5 216.48 45.5 216.411 45.5C216.343 45.5 216.274 45.5 216.205 45.5C216.136 45.5 216.068 45.5 215.999 45.5C215.93 45.5 215.86 45.5 215.791 45.5C215.722 45.5 215.653 45.5 215.583 45.5C215.514 45.5 215.444 45.5 215.375 45.5C215.305 45.5 215.235 45.5 215.166 45.5C215.096 45.5 215.026 45.5 214.956 45.5C214.886 45.5 214.815 45.5 214.745 45.5C214.675 45.5 214.605 45.5 214.534 45.5C214.464 45.5 214.393 45.5 214.322 45.5C214.251 45.5 214.181 45.5 214.11 45.5C214.039 45.5 213.968 45.5 213.896 45.5C213.825 45.5 213.754 45.5 213.683 45.5C213.611 45.5 213.54 45.5 213.468 45.5C213.396 45.5 213.325 45.5 213.253 45.5C213.181 45.5 213.109 45.5 213.037 45.5C212.965 45.5 212.892 45.5 212.82 45.5C212.748 45.5 212.675 45.5 212.603 45.5C212.53 45.5 212.457 45.5 212.385 45.5C212.312 45.5 212.239 45.5 212.166 45.5C212.093 45.5 212.02 45.5 211.946 45.5C211.873 45.5 211.8 45.5 211.726 45.5C211.652 45.5 211.579 45.5 211.505 45.5C211.431 45.5 211.357 45.5 211.283 45.5C211.209 45.5 211.135 45.5 211.061 45.5C210.986 45.5 210.912 45.5 210.838 45.5C210.763 45.5 210.688 45.5 210.614 45.5C210.539 45.5 210.464 45.5 210.389 45.5C210.314 45.5 210.239 45.5 210.163 45.5C210.088 45.5 210.013 45.5 209.937 45.5C209.861 45.5 209.786 45.5 209.71 45.5C209.634 45.5 209.558 45.5 209.482 45.5C209.406 45.5 209.33 45.5 209.253 45.5C209.177 45.5 209.101 45.5 209.024 45.5C208.947 45.5 208.871 45.5 208.794 45.5C208.717 45.5 208.64 45.5 208.563 45.5C208.486 45.5 208.408 45.5 208.331 45.5C208.253 45.5 208.176 45.5 208.098 45.5C208.021 45.5 207.943 45.5 207.865 45.5C207.787 45.5 207.709 45.5 207.63 45.5C207.552 45.5 207.474 45.5 207.395 45.5C207.317 45.5 207.238 45.5 207.159 45.5C207.081 45.5 207.002 45.5 206.923 45.5C206.843 45.5 206.764 45.5 206.685 45.5C206.606 45.5 206.526 45.5 206.446 45.5C206.367 45.5 206.287 45.5 206.207 45.5C206.127 45.5 206.047 45.5 205.967 45.5C205.887 45.5 205.806 45.5 205.726 45.5C205.645 45.5 205.565 45.5 205.484 45.5C205.403 45.5 205.322 45.5 205.241 45.5C205.16 45.5 205.079 45.5 204.997 45.5C204.916 45.5 204.834 45.5 204.753 45.5C204.671 45.5 204.589 45.5 204.507 45.5C204.425 45.5 204.343 45.5 204.261 45.5C204.179 45.5 204.096 45.5 204.014 45.5C203.931 45.5 203.848 45.5 203.765 45.5C203.682 45.5 203.599 45.5 203.516 45.5C203.433 45.5 203.35 45.5 203.266 45.5C203.183 45.5 203.099 45.5 203.015 45.5C202.932 45.5 202.848 45.5 202.763 45.5C202.679 45.5 202.595 45.5 202.511 45.5C202.426 45.5 202.342 45.5 202.257 45.5C202.172 45.5 202.087 45.5 202.002 45.5C201.917 45.5 201.832 45.5 201.747 45.5C201.661 45.5 201.576 45.5 201.49 45.5C201.404 45.5 201.318 45.5 201.232 45.5C201.146 45.5 201.06 45.5 200.974 45.5C200.888 45.5 200.801 45.5 200.714 45.5C200.628 45.5 200.541 45.5 200.454 45.5C200.367 45.5 200.28 45.5 200.193 45.5C200.105 45.5 200.018 45.5 199.93 45.5C199.843 45.5 199.755 45.5 199.667 45.5C199.579 45.5 199.491 45.5 199.402 45.5C199.314 45.5 199.226 45.5 199.137 45.5C199.048 45.5 198.96 45.5 198.871 45.5C198.782 45.5 198.692 45.5 198.603 45.5C198.514 45.5 198.424 45.5 198.335 45.5C198.245 45.5 198.155 45.5 198.065 45.5C197.975 45.5 197.885 45.5 197.795 45.5C197.704 45.5 197.614 45.5 197.523 45.5C197.433 45.5 197.342 45.5 197.251 45.5C197.16 45.5 197.068 45.5 196.977 45.5C196.886 45.5 196.794 45.5 196.702 45.5C196.611 45.5 196.519 45.5 196.427 45.5C196.335 45.5 196.242 45.5 196.15 45.5C196.057 45.5 195.965 45.5 195.872 45.5C195.779 45.5 195.686 45.5 195.593 45.5C195.5 45.5 195.407 45.5 195.313 45.5C195.22 45.5 195.126 45.5 195.032 45.5C194.938 45.5 194.844 45.5 194.75 45.5C194.656 45.5 194.561 45.5 194.467 45.5C194.372 45.5 194.277 45.5 194.183 45.5C194.088 45.5 193.992 45.5 193.897 45.5C193.802 45.5 193.706 45.5 193.611 45.5C193.515 45.5 193.419 45.5 193.323 45.5C193.227 45.5 193.131 45.5 193.034 45.5C192.938 45.5 192.841 45.5 192.744 45.5C192.648 45.5 192.551 45.5 192.453 45.5C192.356 45.5 192.259 45.5 192.161 45.5C192.064 45.5 191.966 45.5 191.868 45.5C191.77 45.5 191.672 45.5 191.574 45.5C191.475 45.5 191.377 45.5 191.278 45.5C191.179 45.5 191.08 45.5 190.981 45.5C190.882 45.5 190.783 45.5 190.684 45.5C190.584 45.5 190.484 45.5 190.384 45.5C190.285 45.5 190.185 45.5 190.084 45.5C189.984 45.5 189.884 45.5 189.783 45.5C189.682 45.5 189.581 45.5 189.48 45.5C189.379 45.5 189.278 45.5 189.177 45.5C189.075 45.5 188.974 45.5 188.872 45.5C188.77 45.5 188.668 45.5 188.566 45.5C188.463 45.5 188.361 45.5 188.258 45.5C188.156 45.5 188.053 45.5 187.95 45.5C187.847 45.5 187.744 45.5 187.64 45.5C187.537 45.5 187.433 45.5 187.329 45.5C187.225 45.5 187.121 45.5 187.017 45.5C186.913 45.5 186.808 45.5 186.704 45.5C186.599 45.5 186.494 45.5 186.389 45.5C186.284 45.5 186.179 45.5 186.073 45.5C185.968 45.5 185.862 45.5 185.756 45.5C185.65 45.5 185.544 45.5 185.438 45.5C185.332 45.5 185.225 45.5 185.118 45.5C185.012 45.5 184.905 45.5 184.797 45.5C184.69 45.5 184.583 45.5 184.475 45.5C184.368 45.5 184.26 45.5 184.152 45.5C184.044 45.5 183.936 45.5 183.827 45.5C183.719 45.5 183.61 45.5 183.502 45.5C183.393 45.5 183.284 45.5 183.174 45.5C183.065 45.5 182.956 45.5 182.846 45.5C182.736 45.5 182.626 45.5 182.516 45.5C182.406 45.5 182.296 45.5 182.185 45.5C182.074 45.5 181.964 45.5 181.853 45.5C181.742 45.5 181.63 45.5 181.519 45.5C181.408 45.5 181.296 45.5 181.184 45.5C181.072 45.5 180.96 45.5 180.848 45.5C180.735 45.5 180.623 45.5 180.51 45.5C180.397 45.5 180.284 45.5 180.171 45.5C180.058 45.5 179.944 45.5 179.831 45.5C179.717 45.5 179.603 45.5 179.489 45.5C179.375 45.5 179.261 45.5 179.146 45.5C179.032 45.5 178.917 45.5 178.802 45.5C178.687 45.5 178.572 45.5 178.456 45.5C178.341 45.5 178.225 45.5 178.109 45.5C177.993 45.5 177.877 45.5 177.761 45.5C177.644 45.5 177.528 45.5 177.411 45.5C177.294 45.5 177.177 45.5 177.06 45.5C176.943 45.5 176.825 45.5 176.707 45.5C176.59 45.5 176.472 45.5 176.353 45.5C176.235 45.5 176.117 45.5 175.998 45.5C175.879 45.5 175.76 45.5 175.641 45.5C175.522 45.5 175.403 45.5 175.283 45.5C175.164 45.5 175.044 45.5 174.924 45.5C174.804 45.5 174.683 45.5 174.563 45.5C174.442 45.5 174.321 45.5 174.2 45.5C174.079 45.5 173.958 45.5 173.837 45.5C173.715 45.5 173.593 45.5 173.471 45.5C173.349 45.5 173.227 45.5 173.105 45.5C172.982 45.5 172.86 45.5 172.737 45.5C172.614 45.5 172.491 45.5 172.367 45.5C172.244 45.5 172.12 45.5 171.996 45.5C171.872 45.5 171.748 45.5 171.624 45.5C171.499 45.5 171.375 45.5 171.25 45.5C171.125 45.5 171 45.5 170.875 45.5C170.749 45.5 170.624 45.5 170.498 45.5C170.372 45.5 170.246 45.5 170.12 45.5C169.993 45.5 169.867 45.5 169.74 45.5C169.613 45.5 169.486 45.5 169.359 45.5C169.231 45.5 169.104 45.5 168.976 45.5C168.848 45.5 168.72 45.5 168.592 45.5C168.463 45.5 168.335 45.5 168.206 45.5C168.077 45.5 167.948 45.5 167.819 45.5C167.689 45.5 167.56 45.5 167.43 45.5C167.3 45.5 167.17 45.5 167.04 45.5C166.909 45.5 166.779 45.5 166.648 45.5C166.517 45.5 166.386 45.5 166.254 45.5C166.123 45.5 165.991 45.5 165.86 45.5C165.728 45.5 165.596 45.5 165.463 45.5C165.331 45.5 165.198 45.5 165.065 45.5C164.932 45.5 164.799 45.5 164.666 45.5C164.532 45.5 164.399 45.5 164.265 45.5C164.131 45.5 163.997 45.5 163.862 45.5C163.728 45.5 163.593 45.5 163.458 45.5C163.323 45.5 163.188 45.5 163.052 45.5C162.917 45.5 162.781 45.5 162.645 45.5C162.509 45.5 162.373 45.5 162.236 45.5C162.1 45.5 161.963 45.5 161.826 45.5C161.689 45.5 161.551 45.5 161.414 45.5C161.276 45.5 161.138 45.5 161 45.5V44.5Z" fill="#094771"/>
<rect width="95.1001" height="30.625" transform="translate(6 66.6875)" fill="white"/>
<path d="M87.7612 91.6958L89.8452 88.731L87.917 85.9917H89.1255L90.001 87.3291C90.1657 87.5833 90.2982 87.7964 90.3984 87.9683C90.556 87.7319 90.701 87.5225 90.8335 87.3398L91.7949 85.9917H92.9497L90.9785 88.6772L93.1001 91.6958H91.9131L90.7422 89.9233L90.4307 89.4453L88.9321 91.6958H87.7612Z" fill="#094771"/>
<path d="M85.9297 85.9917H86.8965V91.6958H85.9297V85.9917ZM80.521 85.9917H81.4878V88.2207H82.7124C83.5109 88.2207 84.125 88.3765 84.5547 88.688C84.988 88.9959 85.2046 89.422 85.2046 89.9663C85.2046 90.4425 85.0238 90.8507 84.6621 91.1909C84.304 91.5275 83.7293 91.6958 82.938 91.6958H80.521V85.9917ZM81.4878 90.9009H82.5029C83.1152 90.9009 83.5521 90.8257 83.8135 90.6753C84.0749 90.5249 84.2056 90.2904 84.2056 89.9717C84.2056 89.7246 84.1089 89.5044 83.9155 89.311C83.7222 89.1177 83.2943 89.021 82.6318 89.021H81.4878V90.9009Z" fill="#094771"/>
<path d="M74.4248 85.9917H75.3916V88.3657H78.0718V85.9917H79.0386V91.6958H78.0718V89.166H75.3916V91.6958H74.4248V85.9917Z" fill="#094771"/>
<path d="M68.3447 85.9917H69.3115V88.3657H71.9917V85.9917H72.9585V91.6958H71.9917V89.166H69.3115V91.6958H68.3447V85.9917Z" fill="#094771"/>
<path d="M65.9385 90.9922C65.5804 91.2965 65.2349 91.5114 64.9019 91.6367C64.5724 91.762 64.2179 91.8247 63.8384 91.8247C63.2118 91.8247 62.7301 91.6725 62.3936 91.3682C62.057 91.0602 61.8887 90.6681 61.8887 90.1919C61.8887 89.9126 61.9513 89.6584 62.0767 89.4292C62.2056 89.1965 62.3721 89.0103 62.5762 88.8706C62.7839 88.731 63.0166 88.6253 63.2744 88.5537C63.4642 88.5036 63.7507 88.4552 64.1338 88.4087C64.9144 88.3156 65.4891 88.2046 65.8579 88.0757C65.8615 87.9432 65.8633 87.859 65.8633 87.8232C65.8633 87.4294 65.772 87.1519 65.5894 86.9907C65.3423 86.7723 64.9753 86.6631 64.4883 86.6631C64.0335 86.6631 63.6969 86.7437 63.4785 86.9048C63.2637 87.0623 63.1043 87.3434 63.0005 87.748L62.0552 87.6191C62.1411 87.2145 62.2826 86.8887 62.4795 86.6416C62.6764 86.391 62.9611 86.1994 63.3335 86.0669C63.7059 85.9308 64.1374 85.8628 64.6279 85.8628C65.1149 85.8628 65.5106 85.9201 65.8149 86.0347C66.1193 86.1493 66.3431 86.2943 66.4863 86.4697C66.6296 86.6416 66.7298 86.86 66.7871 87.125C66.8193 87.2897 66.8354 87.5869 66.8354 88.0166V89.3057C66.8354 90.2044 66.8551 90.7738 66.8945 91.0137C66.9375 91.25 67.0199 91.4774 67.1416 91.6958H66.1318C66.0316 91.4953 65.9671 91.2607 65.9385 90.9922ZM65.8579 88.833C65.507 88.9762 64.9806 89.098 64.2788 89.1982C63.8813 89.2555 63.6003 89.32 63.4355 89.3916C63.2708 89.4632 63.1437 89.5688 63.0542 89.7085C62.9647 89.8446 62.9199 89.9967 62.9199 90.165C62.9199 90.4229 63.0166 90.6377 63.21 90.8096C63.4069 90.9814 63.6934 91.0674 64.0693 91.0674C64.4417 91.0674 64.7729 90.9868 65.063 90.8257C65.353 90.661 65.5661 90.4372 65.7021 90.1543C65.806 89.9359 65.8579 89.6136 65.8579 89.1875V88.833Z" fill="#094771"/>
<path d="M56.5552 85.9917H60.5298V90.9009H61.1475V93.3125H60.3525V91.6958H55.8623V93.3125H55.0674V90.9009H55.5776C56.258 89.9771 56.5838 88.3407 56.5552 85.9917ZM57.3608 86.792C57.2892 88.6432 57.0028 90.0129 56.5015 90.9009H59.5684V86.792H57.3608Z" fill="#094771"/>
<path d="M92.4341 72.9917V78.6958H91.4727V76.4722H90.9141C90.5739 76.4722 90.3197 76.5169 90.1514 76.6064C89.9867 76.6924 89.745 76.9735 89.4263 77.4497L88.583 78.6958H87.3853L88.4272 77.1597C88.7459 76.6906 89.0628 76.4256 89.3779 76.3647C88.8265 76.2896 88.4165 76.0908 88.1479 75.7686C87.883 75.4463 87.7505 75.0757 87.7505 74.6567C87.7505 74.1626 87.9242 73.7616 88.2715 73.4536C88.6224 73.1457 89.1291 72.9917 89.7915 72.9917H92.4341ZM91.4727 73.792H90.0977C89.5212 73.792 89.1488 73.8815 88.9805 74.0605C88.8158 74.2396 88.7334 74.4491 88.7334 74.689C88.7334 75.0291 88.8551 75.2798 89.0986 75.4409C89.3457 75.5985 89.7808 75.6772 90.4038 75.6772H91.4727V73.792Z" fill="#094771"/>
<path d="M81.7993 72.9917H82.7661V77.3423L85.4463 72.9917H86.4883V78.6958H85.5215V74.3721L82.8413 78.6958H81.7993V72.9917Z" fill="#094771"/>
<path d="M75.5098 72.9917H76.4766V77.9009H79.1514V72.9917H80.1182V77.9009H80.7412V80.3125H79.9463V78.6958H75.5098V72.9917Z" fill="#094771"/>
<path d="M73.0928 77.9922C72.7347 78.2965 72.3892 78.5114 72.0562 78.6367C71.7267 78.762 71.3722 78.8247 70.9927 78.8247C70.366 78.8247 69.8844 78.6725 69.5479 78.3682C69.2113 78.0602 69.043 77.6681 69.043 77.1919C69.043 76.9126 69.1056 76.6584 69.231 76.4292C69.3599 76.1965 69.5264 76.0103 69.7305 75.8706C69.9382 75.731 70.1709 75.6253 70.4287 75.5537C70.6185 75.5036 70.9049 75.4552 71.2881 75.4087C72.0687 75.3156 72.6434 75.2046 73.0122 75.0757C73.0158 74.9432 73.0176 74.859 73.0176 74.8232C73.0176 74.4294 72.9263 74.1519 72.7437 73.9907C72.4966 73.7723 72.1296 73.6631 71.6426 73.6631C71.1878 73.6631 70.8512 73.7437 70.6328 73.9048C70.418 74.0623 70.2586 74.3434 70.1548 74.748L69.2095 74.6191C69.2954 74.2145 69.4368 73.8887 69.6338 73.6416C69.8307 73.391 70.1154 73.1994 70.4878 73.0669C70.8602 72.9308 71.2917 72.8628 71.7822 72.8628C72.2692 72.8628 72.6649 72.9201 72.9692 73.0347C73.2736 73.1493 73.4974 73.2943 73.6406 73.4697C73.7839 73.6416 73.8841 73.86 73.9414 74.125C73.9736 74.2897 73.9897 74.5869 73.9897 75.0166V76.3057C73.9897 77.2044 74.0094 77.7738 74.0488 78.0137C74.0918 78.25 74.1742 78.4774 74.2959 78.6958H73.2861C73.1859 78.4953 73.1214 78.2607 73.0928 77.9922ZM73.0122 75.833C72.6613 75.9762 72.1349 76.098 71.4331 76.1982C71.0356 76.2555 70.7546 76.32 70.5898 76.3916C70.4251 76.4632 70.298 76.5688 70.2085 76.7085C70.119 76.8446 70.0742 76.9967 70.0742 77.165C70.0742 77.4229 70.1709 77.6377 70.3643 77.8096C70.5612 77.9814 70.8477 78.0674 71.2236 78.0674C71.596 78.0674 71.9272 77.9868 72.2173 77.8257C72.5073 77.661 72.7204 77.4372 72.8564 77.1543C72.9603 76.9359 73.0122 76.6136 73.0122 76.1875V75.833Z" fill="#094771"/>
<path d="M65.584 76.1177V75.3604C65.9922 75.3568 66.2697 75.3407 66.4165 75.312C66.5669 75.2834 66.7083 75.1974 66.8408 75.0542C66.9733 74.911 67.0396 74.7319 67.0396 74.5171C67.0396 74.2557 66.9518 74.048 66.7764 73.894C66.6045 73.7365 66.3807 73.6577 66.105 73.6577C65.5607 73.6577 65.1794 73.9782 64.9609 74.6191L64.0425 74.4688C64.3289 73.3981 65.02 72.8628 66.1157 72.8628C66.7244 72.8628 67.2007 73.0293 67.5444 73.3623C67.8918 73.6953 68.0654 74.0928 68.0654 74.5547C68.0654 75.0202 67.8398 75.3908 67.3887 75.6665C67.6751 75.8205 67.89 76.0174 68.0332 76.2573C68.1764 76.4937 68.248 76.7747 68.248 77.1006C68.248 77.6126 68.0618 78.028 67.6895 78.3467C67.3171 78.6654 66.7961 78.8247 66.1265 78.8247C64.8267 78.8247 64.0729 78.2464 63.8652 77.0898L64.7729 76.8965C64.8553 77.2617 65.0218 77.5446 65.2725 77.7451C65.5267 77.9456 65.8167 78.0459 66.1426 78.0459C66.4684 78.0459 66.7388 77.9546 66.9536 77.772C67.172 77.5858 67.2812 77.3494 67.2812 77.063C67.2812 76.841 67.2132 76.6476 67.0771 76.4829C66.9411 76.3182 66.7961 76.2161 66.6421 76.1768C66.4881 76.1338 66.2088 76.1123 65.8042 76.1123C65.772 76.1123 65.6986 76.1141 65.584 76.1177Z" fill="#094771"/>
<path d="M58.1772 72.9917H59.144V77.3423L61.8242 72.9917H62.8662V78.6958H61.8994V74.3721L59.2192 78.6958H58.1772V72.9917Z" fill="#094771"/>
<path d="M52.1025 72.9917H53.0693V75.3657H55.7495V72.9917H56.7163V78.6958H55.7495V76.166H53.0693V78.6958H52.1025V72.9917Z" fill="#094771"/>
<path d="M45.6143 75.8438C45.6143 74.7874 45.9079 74.005 46.4951 73.4966C46.9857 73.0741 47.5837 72.8628 48.2891 72.8628C49.0732 72.8628 49.7142 73.1206 50.2119 73.6362C50.7096 74.1483 50.9585 74.8573 50.9585 75.7632C50.9585 76.4972 50.8475 77.0755 50.6255 77.498C50.4071 77.917 50.0866 78.2428 49.6641 78.4756C49.2451 78.7083 48.7868 78.8247 48.2891 78.8247C47.4906 78.8247 46.8442 78.5687 46.3501 78.0566C45.8595 77.5446 45.6143 76.807 45.6143 75.8438ZM46.6079 75.8438C46.6079 76.5742 46.7673 77.1221 47.0859 77.4873C47.4046 77.849 47.8057 78.0298 48.2891 78.0298C48.7689 78.0298 49.1681 77.8472 49.4868 77.4819C49.8055 77.1167 49.9648 76.5599 49.9648 75.8115C49.9648 75.1061 49.8037 74.5726 49.4814 74.2109C49.1628 73.8457 48.7653 73.6631 48.2891 73.6631C47.8057 73.6631 47.4046 73.8439 47.0859 74.2056C46.7673 74.5672 46.6079 75.1133 46.6079 75.8438Z" fill="#094771"/>
<path d="M39.8511 80.8818V72.9917H40.7319V73.7329C40.9396 73.4429 41.1742 73.2262 41.4355 73.083C41.6969 72.9362 42.0138 72.8628 42.3862 72.8628C42.8732 72.8628 43.3029 72.9881 43.6753 73.2388C44.0477 73.4894 44.3288 73.8439 44.5186 74.3022C44.7083 74.757 44.8032 75.2565 44.8032 75.8008C44.8032 76.3844 44.6976 76.9108 44.4863 77.3799C44.2786 77.8454 43.9743 78.2035 43.5732 78.4541C43.1758 78.7012 42.7568 78.8247 42.3164 78.8247C41.9941 78.8247 41.7041 78.7567 41.4463 78.6206C41.1921 78.4845 40.9826 78.3127 40.8179 78.105V80.8818H39.8511ZM40.7266 75.876C40.7266 76.61 40.8752 77.1525 41.1724 77.5034C41.4696 77.8543 41.8294 78.0298 42.252 78.0298C42.6816 78.0298 43.0487 77.849 43.353 77.4873C43.661 77.1221 43.8149 76.5581 43.8149 75.7954C43.8149 75.0685 43.6646 74.5243 43.3638 74.1626C43.0666 73.8009 42.7103 73.6201 42.2949 73.6201C41.8831 73.6201 41.5179 73.8135 41.1992 74.2002C40.8841 74.5833 40.7266 75.1419 40.7266 75.876Z" fill="#094771"/>
<path d="M33.7065 78.6958L35.7905 75.731L33.8623 72.9917H35.0708L35.9463 74.3291C36.111 74.5833 36.2435 74.7964 36.3438 74.9683C36.5013 74.7319 36.6463 74.5225 36.7788 74.3398L37.7402 72.9917H38.895L36.9238 75.6772L39.0454 78.6958H37.8584L36.6875 76.9233L36.376 76.4453L34.8774 78.6958H33.7065Z" fill="#094771"/>
<path d="M28.2764 72.9917H29.2432V75.3657H31.9233V72.9917H32.8901V78.6958H31.9233V76.166H29.2432V78.6958H28.2764V72.9917Z" fill="#094771"/>
<path d="M22.1265 72.9917H23.0933V77.3423L25.7734 72.9917H26.8154V78.6958H25.8486V74.3721L23.1685 78.6958H22.1265V72.9917Z" fill="#094771"/>
<path d="M19.9189 75.9351L20.9609 76.1982C20.7425 77.054 20.3486 77.7075 19.7793 78.1587C19.2135 78.6063 18.5207 78.8301 17.7007 78.8301C16.8521 78.8301 16.161 78.6582 15.6274 78.3145C15.0975 77.9671 14.6929 77.4658 14.4136 76.8105C14.1379 76.1553 14 75.4517 14 74.6997C14 73.8797 14.1558 73.1654 14.4673 72.5566C14.7824 71.9443 15.2282 71.4806 15.8047 71.1655C16.3848 70.8468 17.0221 70.6875 17.7168 70.6875C18.5046 70.6875 19.167 70.888 19.7041 71.2891C20.2412 71.6901 20.6154 72.2541 20.8267 72.981L19.8008 73.2227C19.6182 72.6497 19.3532 72.2326 19.0059 71.9712C18.6585 71.7098 18.2217 71.5791 17.6953 71.5791C17.0902 71.5791 16.5835 71.7241 16.1753 72.0142C15.7707 72.3042 15.486 72.6945 15.3213 73.1851C15.1566 73.672 15.0742 74.1751 15.0742 74.6943C15.0742 75.3639 15.1709 75.9494 15.3643 76.4507C15.5612 76.9484 15.8656 77.3208 16.2773 77.5679C16.6891 77.8149 17.1349 77.9385 17.6147 77.9385C18.1984 77.9385 18.6925 77.7702 19.0972 77.4336C19.5018 77.097 19.7757 76.5975 19.9189 75.9351Z" fill="#094771"/>
<rect width="84.0815" height="26.1943" transform="translate(178 32)" fill="white"/>
<path d="M253.903 42.3042H254.87V44.7695C255.178 44.7695 255.392 44.7104 255.514 44.5923C255.639 44.4741 255.822 44.1304 256.062 43.561C256.252 43.1099 256.406 42.8127 256.524 42.6694C256.642 42.5262 256.778 42.4295 256.932 42.3794C257.086 42.3293 257.333 42.3042 257.673 42.3042H257.867V43.1045L257.598 43.0991C257.344 43.0991 257.181 43.1367 257.109 43.2119C257.034 43.2907 256.92 43.5252 256.766 43.9155C256.619 44.2879 256.485 44.5457 256.363 44.689C256.241 44.8322 256.053 44.9629 255.799 45.0811C256.214 45.1921 256.622 45.5788 257.023 46.2412L258.082 48.0083H257.018L255.987 46.2412C255.776 45.8867 255.591 45.654 255.434 45.543C255.276 45.4284 255.088 45.3711 254.87 45.3711V48.0083H253.903V42.3042Z" fill="#094771"/>
<path d="M247.833 42.3042H248.8V44.6782H251.48V42.3042H252.447V48.0083H251.48V45.4785H248.8V48.0083H247.833V42.3042Z" fill="#094771"/>
<path d="M245.427 47.3047C245.069 47.609 244.724 47.8239 244.391 47.9492C244.061 48.0745 243.707 48.1372 243.327 48.1372C242.701 48.1372 242.219 47.985 241.882 47.6807C241.546 47.3727 241.377 46.9806 241.377 46.5044C241.377 46.2251 241.44 45.9709 241.565 45.7417C241.694 45.509 241.861 45.3228 242.065 45.1831C242.273 45.0435 242.505 44.9378 242.763 44.8662C242.953 44.8161 243.239 44.7677 243.623 44.7212C244.403 44.6281 244.978 44.5171 245.347 44.3882C245.35 44.2557 245.352 44.1715 245.352 44.1357C245.352 43.7419 245.261 43.4644 245.078 43.3032C244.831 43.0848 244.464 42.9756 243.977 42.9756C243.522 42.9756 243.186 43.0562 242.967 43.2173C242.752 43.3748 242.593 43.6559 242.489 44.0605L241.544 43.9316C241.63 43.527 241.771 43.2012 241.968 42.9541C242.165 42.7035 242.45 42.5119 242.822 42.3794C243.195 42.2433 243.626 42.1753 244.117 42.1753C244.604 42.1753 244.999 42.2326 245.304 42.3472C245.608 42.4618 245.832 42.6068 245.975 42.7822C246.118 42.9541 246.219 43.1725 246.276 43.4375C246.308 43.6022 246.324 43.8994 246.324 44.3291V45.6182C246.324 46.5169 246.344 47.0863 246.383 47.3262C246.426 47.5625 246.509 47.7899 246.63 48.0083H245.621C245.52 47.8078 245.456 47.5732 245.427 47.3047ZM245.347 45.1455C244.996 45.2887 244.469 45.4105 243.768 45.5107C243.37 45.568 243.089 45.6325 242.924 45.7041C242.76 45.7757 242.632 45.8813 242.543 46.021C242.453 46.1571 242.409 46.3092 242.409 46.4775C242.409 46.7354 242.505 46.9502 242.699 47.1221C242.896 47.2939 243.182 47.3799 243.558 47.3799C243.931 47.3799 244.262 47.2993 244.552 47.1382C244.842 46.9735 245.055 46.7497 245.191 46.4668C245.295 46.2484 245.347 45.9261 245.347 45.5V45.1455Z" fill="#094771"/>
<path d="M234.658 40.1343H239.766V41.0635H235.7V43.4912H237.58C238.275 43.4912 238.826 43.5575 239.234 43.6899C239.646 43.8224 239.976 44.0731 240.223 44.4419C240.47 44.8071 240.593 45.2332 240.593 45.7202C240.593 46.1177 240.504 46.4901 240.325 46.8374C240.149 47.1812 239.886 47.4622 239.535 47.6807C239.184 47.8991 238.586 48.0083 237.741 48.0083H234.658V40.1343ZM235.7 47.1221H237.784C238.346 47.1221 238.767 47.0075 239.046 46.7783C239.329 46.5492 239.471 46.2054 239.471 45.7471C239.471 45.4212 239.39 45.1491 239.229 44.9307C239.068 44.7122 238.844 44.5672 238.558 44.4956C238.271 44.424 237.782 44.3882 237.091 44.3882H235.7V47.1221Z" fill="#094771"/>
<path d="M228.927 42.3042H233.562V43.1045H231.726V48.0083H230.764V43.1045H228.927V42.3042Z" fill="#094771"/>
<path d="M224.501 42.3042H225.468V44.7695C225.776 44.7695 225.991 44.7104 226.113 44.5923C226.238 44.4741 226.421 44.1304 226.661 43.561C226.85 43.1099 227.004 42.8127 227.123 42.6694C227.241 42.5262 227.377 42.4295 227.531 42.3794C227.685 42.3293 227.932 42.3042 228.272 42.3042H228.465V43.1045L228.197 43.0991C227.943 43.0991 227.78 43.1367 227.708 43.2119C227.633 43.2907 227.518 43.5252 227.364 43.9155C227.217 44.2879 227.083 44.5457 226.961 44.689C226.84 44.8322 226.652 44.9629 226.397 45.0811C226.813 45.1921 227.221 45.5788 227.622 46.2412L228.68 48.0083H227.617L226.585 46.2412C226.374 45.8867 226.19 45.654 226.032 45.543C225.875 45.4284 225.687 45.3711 225.468 45.3711V48.0083H224.501V42.3042Z" fill="#094771"/>
<path d="M222.289 46.1714L223.288 46.2949C223.13 46.8786 222.838 47.3315 222.412 47.6538C221.986 47.9761 221.442 48.1372 220.779 48.1372C219.945 48.1372 219.283 47.8812 218.792 47.3691C218.305 46.8535 218.062 46.132 218.062 45.2046C218.062 44.245 218.309 43.5002 218.803 42.9702C219.297 42.4403 219.938 42.1753 220.726 42.1753C221.488 42.1753 222.111 42.4349 222.595 42.9541C223.078 43.4733 223.32 44.2038 223.32 45.1455C223.32 45.2028 223.318 45.2887 223.314 45.4033H219.061C219.096 46.0299 219.274 46.5098 219.592 46.8428C219.911 47.1758 220.308 47.3423 220.785 47.3423C221.139 47.3423 221.442 47.2492 221.692 47.063C221.943 46.8768 222.142 46.5796 222.289 46.1714ZM219.114 44.6084H222.299C222.256 44.1286 222.135 43.7687 221.934 43.5288C221.626 43.1564 221.227 42.9702 220.736 42.9702C220.292 42.9702 219.918 43.1188 219.614 43.416C219.313 43.7132 219.146 44.1107 219.114 44.6084Z" fill="#094771"/>
<path d="M212.261 50.1943V42.3042H213.142V43.0454C213.349 42.7554 213.584 42.5387 213.845 42.3955C214.107 42.2487 214.424 42.1753 214.796 42.1753C215.283 42.1753 215.713 42.3006 216.085 42.5513C216.457 42.8019 216.738 43.1564 216.928 43.6147C217.118 44.0695 217.213 44.569 217.213 45.1133C217.213 45.6969 217.107 46.2233 216.896 46.6924C216.688 47.1579 216.384 47.516 215.983 47.7666C215.585 48.0137 215.167 48.1372 214.726 48.1372C214.404 48.1372 214.114 48.0692 213.856 47.9331C213.602 47.797 213.392 47.6252 213.228 47.4175V50.1943H212.261ZM213.136 45.1885C213.136 45.9225 213.285 46.465 213.582 46.8159C213.879 47.1668 214.239 47.3423 214.662 47.3423C215.091 47.3423 215.458 47.1615 215.763 46.7998C216.071 46.4346 216.225 45.8706 216.225 45.1079C216.225 44.381 216.074 43.8368 215.773 43.4751C215.476 43.1134 215.12 42.9326 214.705 42.9326C214.293 42.9326 213.928 43.126 213.609 43.5127C213.294 43.8958 213.136 44.4544 213.136 45.1885Z" fill="#094771"/>
<path d="M206.116 42.3042H207.083V46.6548L209.763 42.3042H210.805V48.0083H209.838V43.6846L207.158 48.0083H206.116V42.3042Z" fill="#094771"/>
<path d="M199.499 40.1343H204.29V47.0791H204.999V49.8452H204.07V48.0083H198.865V49.8452H197.936V47.0791H198.548C199.182 46.123 199.499 44.1912 199.499 41.2837V40.1343ZM203.248 41.0635H200.503V41.4663C200.503 42.1359 200.443 43.0526 200.321 44.2163C200.203 45.3765 199.968 46.3307 199.617 47.0791H203.248V41.0635Z" fill="#094771"/>
<path d="M195.868 43.4053V42.3042H196.969V43.4053H195.868ZM195.868 48.0083V46.9072H196.969V48.0083H195.868Z" fill="#094771"/>
<path d="M193.392 45.2476L194.434 45.5107C194.216 46.3665 193.822 47.02 193.252 47.4712C192.687 47.9188 191.994 48.1426 191.174 48.1426C190.325 48.1426 189.634 47.9707 189.101 47.627C188.571 47.2796 188.166 46.7783 187.887 46.123C187.611 45.4678 187.473 44.7642 187.473 44.0122C187.473 43.1922 187.629 42.4779 187.94 41.8691C188.256 41.2568 188.701 40.7931 189.278 40.478C189.858 40.1593 190.495 40 191.19 40C191.978 40 192.64 40.2005 193.177 40.6016C193.714 41.0026 194.089 41.5666 194.3 42.2935L193.274 42.5352C193.091 41.9622 192.826 41.5451 192.479 41.2837C192.132 41.0223 191.695 40.8916 191.168 40.8916C190.563 40.8916 190.057 41.0366 189.648 41.3267C189.244 41.6167 188.959 42.007 188.794 42.4976C188.63 42.9845 188.547 43.4876 188.547 44.0068C188.547 44.6764 188.644 45.2619 188.837 45.7632C189.034 46.2609 189.339 46.6333 189.75 46.8804C190.162 47.1274 190.608 47.251 191.088 47.251C191.672 47.251 192.166 47.0827 192.57 46.7461C192.975 46.4095 193.249 45.91 193.392 45.2476Z" fill="#094771"/>
<path d="M184.9 48.0083H183.934V41.8477C183.701 42.0697 183.395 42.2917 183.015 42.5137C182.639 42.7357 182.301 42.9022 182 43.0132V42.0786C182.541 41.8244 183.013 41.5164 183.418 41.1548C183.823 40.7931 184.109 40.4422 184.277 40.1021H184.9V48.0083Z" fill="#094771"/>
</svg>
