<?xml version="1.0" encoding="UTF-8"?>
<svg xmlns="http://www.w3.org/2000/svg" xmlns:xlink="http://www.w3.org/1999/xlink" width="16px" height="16px" viewBox="0 0 16 16" version="1.1">
<defs>
<linearGradient id="linear0" gradientUnits="userSpaceOnUse" x1="2.82833" y1="18.252899" x2="24" y2="12" gradientTransform="matrix(0.666667,0,0,0.666667,0,0)">
<stop offset="0" style="stop-color:rgb(26.666667%,80%,100%);stop-opacity:1;"/>
<stop offset="0.662" style="stop-color:rgb(33.333333%,20%,93.333333%);stop-opacity:1;"/>
<stop offset="1" style="stop-color:rgb(60%,20%,86.666667%);stop-opacity:1;"/>
</linearGradient>
<radialGradient id="radial0" gradientUnits="userSpaceOnUse" cx="0" cy="0" fx="0" fy="0" r="1" gradientTransform="matrix(12.125062,15.164902,-6.248329,4.995837,-0.380652,-7.026933)">
<stop offset="0" style="stop-color:rgb(0%,0%,100%);stop-opacity:1;"/>
<stop offset="1" style="stop-color:rgb(0%,0%,0%);stop-opacity:0;"/>
</radialGradient>
</defs>
<g id="surface1">
<path style=" stroke:none;fill-rule:nonzero;fill:url(#linear0);" d="M 8 0 C 12.417969 0 16 3.582031 16 8 C 16 12.417969 12.417969 16 8 16 C 3.582031 16 0 12.417969 0 8 C 0 3.582031 3.582031 0 8 0 Z M 8 0 "/>
<path style=" stroke:none;fill-rule:nonzero;fill:url(#radial0);" d="M 8 0 C 12.417969 0 16 3.582031 16 8 C 16 12.417969 12.417969 16 8 16 C 3.582031 16 0 12.417969 0 8 C 0 3.582031 3.582031 0 8 0 Z M 8 0 "/>
<path style=" stroke:none;fill-rule:evenodd;fill:rgb(100%,100%,100%);fill-opacity:1;" d="M 8.097656 12.5 C 7.199219 12.5 6.777344 12.367188 6.050781 11.839844 C 5.589844 12.433594 4.132812 12.898438 4.070312 12.101562 C 4.070312 11.503906 3.9375 11 3.789062 10.449219 C 3.613281 9.773438 3.410156 9.019531 3.410156 7.925781 C 3.410156 5.3125 5.546875 3.34375 8.074219 3.34375 C 10.605469 3.34375 12.589844 5.40625 12.589844 7.949219 C 12.597656 10.449219 10.589844 12.484375 8.097656 12.5 Z M 8.136719 5.601562 C 6.902344 5.539062 5.945312 6.394531 5.730469 7.738281 C 5.554688 8.851562 5.867188 10.203125 6.132812 10.273438 C 6.257812 10.304688 6.578125 10.046875 6.777344 9.847656 C 7.109375 10.074219 7.492188 10.210938 7.894531 10.246094 C 9.167969 10.304688 10.257812 9.328125 10.34375 8.050781 C 10.394531 6.765625 9.414062 5.679688 8.136719 5.601562 Z M 8.136719 5.601562 "/>
</g>
</svg>
