<svg width="96" height="24" viewBox="0 0 96 24" fill="none" xmlns="http://www.w3.org/2000/svg">
<path fill-rule="evenodd" clip-rule="evenodd" d="M42 3.5H30C29.1709 3.5 28.5 4.17163 28.5 5V6.5H27V5C27 3.34326 28.3433 2 30 2H42C43.6567 2 45 3.34326 45 5V15.5H43.5V5C43.5 4.17163 42.8291 3.5 42 3.5ZM43.5 18.5V20C43.5 20.8284 42.8291 21.5 42 21.5H30C29.1709 21.5 28.5 20.8284 28.5 20V9.5H27V20C27 21.6567 28.3433 23 30 23H42C43.6567 23 45 21.6567 45 20V18.5H43.5Z" fill="#009646"/>
<path d="M24 14L27.75 8L31.5 14H24Z" fill="#009646"/>
<path d="M48 11L44.25 17L40.5 11L48 11Z" fill="#009646"/>
<path d="M31.5 5H40.5V6.5H31.5V5Z" fill="#009646"/>
<path d="M31.5 8H40.5V9.5H31.5V8Z" fill="#009646"/>
<path d="M33 11H39V12.5H33V11Z" fill="#009646"/>
<path d="M31.5 14H40.5V15.5H31.5V14Z" fill="#009646"/>
<path d="M31.5 17H40.5V18.5H31.5V17Z" fill="#009646"/>
<path fill-rule="evenodd" clip-rule="evenodd" d="M66 3.5H54C53.1709 3.5 52.5 4.17163 52.5 5V6.5H51V5C51 3.34326 52.3433 2 54 2H66C67.6567 2 69 3.34326 69 5V15.5H67.5V5C67.5 4.17163 66.8291 3.5 66 3.5ZM67.5 18.5V20C67.5 20.8284 66.8291 21.5 66 21.5H54C53.1709 21.5 52.5 20.8284 52.5 20V9.5H51V20C51 21.6567 52.3433 23 54 23H66C67.6567 23 69 21.6567 69 20V18.5H67.5Z" fill="#FF0000"/>
<path d="M48 14L51.75 8L55.5 14H48Z" fill="#FF0000"/>
<path d="M72 11L68.25 17L64.5 11L72 11Z" fill="#FF0000"/>
<path d="M55.5 5H64.5V6.5H55.5V5Z" fill="#FF0000"/>
<path d="M55.5 8H64.5V9.5H55.5V8Z" fill="#FF0000"/>
<path d="M57 11H63V12.5H57V11Z" fill="#FF0000"/>
<path d="M55.5 14H64.5V15.5H55.5V14Z" fill="#FF0000"/>
<path d="M55.5 17H64.5V18.5H55.5V17Z" fill="#FF0000"/>
<path fill-rule="evenodd" clip-rule="evenodd" d="M90 3.5H78C77.1709 3.5 76.5 4.17163 76.5 5V6.5H75V5C75 3.34326 76.3433 2 78 2H90C91.6567 2 93 3.34326 93 5V15.5H91.5V5C91.5 4.17163 90.8291 3.5 90 3.5ZM91.5 18.5V20C91.5 20.8284 90.8291 21.5 90 21.5H78C77.1709 21.5 76.5 20.8284 76.5 20V9.5H75V20C75 21.6567 76.3433 23 78 23H90C91.6567 23 93 21.6567 93 20V18.5H91.5Z" fill="#4D4D4D"/>
<path d="M72 14L75.75 8L79.5 14H72Z" fill="#4D4D4D"/>
<path d="M96 11L92.25 17L88.5 11L96 11Z" fill="#4D4D4D"/>
<path d="M79.5 5H88.5V6.5H79.5V5Z" fill="#4D4D4D"/>
<path d="M79.5 8H88.5V9.5H79.5V8Z" fill="#4D4D4D"/>
<path d="M81 11H87V12.5H81V11Z" fill="#4D4D4D"/>
<path d="M79.5 14H88.5V15.5H79.5V14Z" fill="#4D4D4D"/>
<path d="M79.5 17H88.5V18.5H79.5V17Z" fill="#4D4D4D"/>
</svg>
