<svg width="48" height="48" viewBox="0 0 48 48" fill="none" xmlns="http://www.w3.org/2000/svg">
<g clip-path="url(#clip0_24_39)">
<path d="M0 10C0 4.47715 4.47715 0 10 0H38C43.5228 0 48 4.47715 48 10V38C48 43.5228 43.5228 48 38 48H10C4.47715 48 0 43.5228 0 38V10Z" fill="#FBDC4B"/>
<path d="M6 37V30.4141L3.70703 32.707L2.29297 31.293L7 26.5859L11.707 31.293L10.293 32.707L8 30.4141V37C8 39.2091 9.79086 41 12 41H19V43H12C8.68629 43 6 40.3137 6 37Z" fill="#666870"/>
<path d="M42 11V17.5859L44.293 15.293L45.707 16.707L41 21.4141L36.293 16.707L37.707 15.293L40 17.5859V11C40 8.79086 38.2091 7 36 7H29V5H36C39.3137 5 42 7.68629 42 11Z" fill="#666870"/>
<path d="M35 34V36H14V34H35Z" fill="#666870"/>
<path d="M24.0449 11.1094C24.378 10.939 24.7842 10.968 25.0928 11.1953L34.5928 18.1953C34.9405 18.4516 35.0851 18.9021 34.9502 19.3125C34.8153 19.7228 34.4319 20 34 20H15C14.5681 20 14.1847 19.7228 14.0498 19.3125C13.9149 18.9021 14.0595 18.4516 14.4072 18.1953L23.9072 11.1953L24.0449 11.1094ZM18.042 18H30.958L24.5 13.2412L18.042 18Z" fill="#666870"/>
<path d="M18 22V32H16V22H18ZM33 22V32H31V22H33Z" fill="#666870"/>
<path d="M23 22V32H21V22H23ZM28 22V32H26V22H28Z" fill="#666870"/>
</g>
<defs>
<clipPath id="clip0_24_39">
<rect width="48" height="48" fill="white"/>
</clipPath>
</defs>
</svg>
