<svg width="16" height="16" viewBox="0 0 16 16" fill="none" xmlns="http://www.w3.org/2000/svg">
<path d="M8 15C8.82843 15 9.5 14.3284 9.5 13.5C9.5 12.6716 8.82843 12 8 12C7.17157 12 6.5 12.6716 6.5 13.5C6.5 14.3284 7.17157 15 8 15Z" fill="#333333"/>
<path d="M8.00007 11.0002C7.44807 11.0002 7.00007 10.5532 7.00007 10.0002C7.00007 7.6432 8.08707 6.4532 8.88007 5.5852C9.57307 4.8272 9.78407 4.5552 9.59907 3.8812C9.55807 3.7322 9.43407 3.2772 8.76207 3.0812C8.07707 2.8822 7.15907 3.0712 6.66907 3.5122C6.25907 3.8832 5.62707 3.8502 5.25707 3.4402C4.88707 3.0302 4.91907 2.3982 5.32907 2.0282C6.33107 1.1232 7.97507 0.768198 9.32407 1.1622C10.4321 1.4872 11.2361 2.2852 11.5281 3.3532C12.0131 5.1232 11.0941 6.1272 10.3571 6.9352C9.65907 7.6992 9.00007 8.4192 9.00007 10.0002C9.00007 10.5532 8.55207 11.0002 8.00007 11.0002Z" fill="#333333"/>
</svg>
