<svg width="80" height="16" viewBox="0 0 80 16" fill="none" xmlns="http://www.w3.org/2000/svg">
<circle cx="8" cy="8" r="7" fill="#EBEBEB"/>
<circle cx="8" cy="8" r="6.5" stroke="black" stroke-opacity="0.3"/>
<circle cx="24" cy="8" r="7" fill="#FEE107"/>
<circle cx="24" cy="8" r="6.5" stroke="black" stroke-opacity="0.2"/>
<path d="M47 8C47 11.866 43.866 15 40 15C36.134 15 33 11.866 33 8C33 4.13401 36.134 1 40 1C43.866 1 47 4.13401 47 8Z" fill="#EB6163"/>
<path d="M46.5 8C46.5 11.5899 43.5899 14.5 40 14.5C36.4101 14.5 33.5 11.5899 33.5 8C33.5 4.41015 36.4101 1.5 40 1.5C43.5899 1.5 46.5 4.41015 46.5 8Z" stroke="black" stroke-opacity="0.2"/>
<path d="M63 8C63 11.866 59.866 15 56 15C52.134 15 49 11.866 49 8C49 4.13401 52.134 1 56 1C59.866 1 63 4.13401 63 8Z" fill="#3BC855"/>
<path d="M62.5 8C62.5 11.5899 59.5899 14.5 56 14.5C52.4101 14.5 49.5 11.5899 49.5 8C49.5 4.41015 52.4101 1.5 56 1.5C59.5899 1.5 62.5 4.41015 62.5 8Z" stroke="black" stroke-opacity="0.2"/>
<path d="M70.9998 12.0002C70.7438 12.0002 70.4878 11.9022 70.2928 11.7072L66.2928 7.70725C65.9018 7.31625 65.9018 6.68425 66.2928 6.29325C66.6838 5.90225 67.3158 5.90225 67.7068 6.29325L70.9998 9.58625L77.2928 3.29325C77.6838 2.90225 78.3158 2.90225 78.7068 3.29325C79.0978 3.68425 79.0978 4.31625 78.7068 4.70725L71.7068 11.7072C71.5118 11.9022 71.2558 12.0002 70.9998 12.0002Z" fill="#35B44C"/>
</svg>
